<?xml version="1.0" encoding="UTF-8"?> <svg xmlns="http://www.w3.org/2000/svg" viewBox="0 0 762.8 160.2"><title>logo-room15-ua-2</title><polygon points="731.39 145.02 15.47 145.02 31.74 11.98 731.39 11.98 731.39 145.02" style="fill:#ffd800"></polygon><path d="M231.1,42H202.3c-6.8,0-10.8,3.4-11.9,10.2l-9.5,54.2q-1.8,10.2,8.4,10.2h28.8c6.8,0,10.8-3.4,11.9-10.2l9.5-54.2Q241.3,42,231.1,42Z" style="fill:#084594"></path><path d="M30.6,0,0,160.2H732.2L762.8,0ZM59.8,138.4H26.4L30,117.8H63.4Zm86.3-84.5-2.7,15.2c-1.7,9.4-4.5,16.6-8.5,21.8s-9.6,8.6-16.6,10.3l14.6,37.2h-33L73.4,75h36a7,7,0,0,0,6.9-5.7L120,48.9a7,7,0,0,0-6.9-8.3h-56L47.1,20h71.1c11.8,0,20,2.7,24.4,8S148.2,42,146.1,53.9Zm123.8-1.7-9.5,54.2c-2.1,11.8-6.3,20.5-12.6,25.8s-15.4,8-27.2,8H178.3c-11.8,0-20-2.7-24.4-8s-5.6-14-3.5-25.8l9.5-54.2q3.15-17.7,12.6-25.8c6.3-5.4,15.4-8,27.2-8H242c11.8,0,20,2.7,24.4,8S272,40.3,269.9,52.2Zm123.6,0L384,106.4c-2.1,11.8-6.3,20.5-12.6,25.8s-15.4,8-27.2,8H301.9c-11.8,0-20-2.7-24.4-8s-5.6-14-3.5-25.8l9.5-54.2q3.15-17.7,12.6-25.8c6.3-5.4,15.4-8,27.2-8h42.3c11.8,0,20,2.7,24.4,8S395.6,40.3,393.5,52.2Zm133.7,86.3H496.7l11.6-66-31.2,42.3H453.4L437.3,72.5l-11.7,66H395.1L416,20h32.2L471,82.6,515.9,20h32.2Zm48.5,0L592,49.6,561.4,66.2l4.9-26.3L600,20h27.1L606.2,138.5ZM695.2,65.7c11.1,0,18.7,2.5,23,7.5S723.8,85.8,722,96l-2.1,11.8c-1.9,11-6,19-12.1,24.2s-14.7,7.7-25.7,7.7l-57-1.2,3.8-23.4h50.8a9.93,9.93,0,0,0,6.6-2.2,9,9,0,0,0,3.3-5.9l1.4-8c1.1-6.4-1.7-9.6-8.5-9.6H633.4L645.6,20h81.2l-4.2,23.7H671.8l-3.9,22Z" style="fill:#084594"></path><path d="M354.7,42H325.9c-6.8,0-10.8,3.4-11.9,10.2l-9.5,54.2q-1.8,10.2,8.4,10.2h28.8c6.8,0,10.8-3.4,11.9-10.2l9.5-54.2Q364.75,42,354.7,42Z" style="fill:#084594"></path></svg> 