<?xml version="1.0" encoding="utf-8"?>
<!-- Generator: Adobe Illustrator 23.1.0, SVG Export Plug-In . SVG Version: 6.00 Build 0)  -->
<svg version="1.1" id="Слой_7" xmlns="http://www.w3.org/2000/svg" xmlns:xlink="http://www.w3.org/1999/xlink" x="0px" y="0px"
	 viewBox="0 0 1930 2000" style="enable-background:new 0 0 1930 2000;" xml:space="preserve">
<style type="text/css">
	.st0{fill:url(#SVGID_1_);}
	.st1{fill:#FFFFFF;}
	.st2{fill:url(#SVGID_2_);}
	.st3{fill:url(#SVGID_3_);}
	.st4{fill:url(#SVGID_4_);}
	.st5{fill:url(#SVGID_5_);}
	.st6{fill:url(#SVGID_6_);}
	.st7{fill:url(#SVGID_7_);}
	.st8{fill:url(#SVGID_8_);}
	.st9{fill:url(#SVGID_9_);}
	.st10{fill:#C9885D;}
	.st11{fill:#724724;}
	.st12{fill:#9E6438;}
	.st13{fill:url(#SVGID_10_);}
	.st14{fill:#EDEAEB;}
	.st15{fill:#000206;}
	.st16{fill:#F13921;}
	.st17{fill:#7D7E84;}
	.st18{fill:url(#SVGID_11_);}
	.st19{fill:url(#SVGID_12_);}
	.st20{opacity:0.53;fill:#767A85;}
	.st21{fill:url(#SVGID_13_);}
	.st22{fill:url(#SVGID_14_);}
	.st23{fill:url(#SVGID_15_);}
	.st24{fill:url(#SVGID_16_);}
	.st25{fill:url(#SVGID_17_);}
	.st26{fill:url(#SVGID_18_);}
	.st27{fill:url(#SVGID_19_);}
	.st28{fill:url(#SVGID_20_);}
	.st29{fill:url(#SVGID_21_);}
	.st30{fill:url(#SVGID_22_);}
	.st31{fill:url(#SVGID_23_);}
	.st32{fill:url(#SVGID_24_);}
	.st33{fill:url(#SVGID_25_);}
	.st34{fill:url(#SVGID_26_);}
	.st35{fill:url(#SVGID_27_);}
</style>
<linearGradient id="SVGID_1_" gradientUnits="userSpaceOnUse" x1="1792.4958" y1="664.2767" x2="64.4958" y2="1372.7567">
	<stop  offset="0.1575" style="stop-color:#020D56"/>
	<stop  offset="0.28" style="stop-color:#020D50"/>
	<stop  offset="0.4437" style="stop-color:#020D3F"/>
	<stop  offset="0.6144" style="stop-color:#010D26"/>
	<stop  offset="0.8913" style="stop-color:#000002"/>
</linearGradient>
<circle class="st0" cx="820" cy="1063" r="743"/>
<g id="Слой_10">
	<polygon class="st1" points="651.5,906.5 672.5,906.5 684.5,886.5 691.5,905.5 711.5,905.5 694.5,919.5 707.5,946.5 682.5,929.5 
		662.5,946.5 667.5,918.5 	"/>
	<polygon class="st1" points="353.5,1086.7 371,1086.7 381,1070 386.8,1085.8 403.5,1085.8 389.3,1097.5 400.2,1120 379.3,1105.8 
		362.7,1120 366.8,1096.7 	"/>
	<polygon class="st1" points="1174,900.5 1190.6,900.5 1200.1,883 1205.7,899.6 1221.5,899.6 1208,911.9 1218.3,935.5 1198.5,920.6 
		1182.7,935.5 1186.7,911 	"/>
	<polygon class="st1" points="1204,1184 1214.7,1184 1220.8,1172.8 1224.3,1183.5 1234.5,1183.5 1225.9,1191.3 1232.5,1206.5 
		1219.8,1196.9 1209.6,1206.5 1212.1,1190.8 	"/>
	<polygon class="st1" points="895,1155 911.3,1155 920.6,1139.5 926,1154.2 941.5,1154.2 928.3,1165.1 938.4,1186 919,1172.8 
		903.5,1186 907.4,1164.3 	"/>
	<polygon class="st1" points="732.5,1457.3 751.8,1457.3 762.8,1439 769.2,1456.4 787.5,1456.4 771.9,1469.3 783.8,1494 
		760.9,1478.4 742.6,1494 747.2,1468.3 	"/>
	<polygon class="st1" points="513.5,735.7 531,735.7 541,719 546.8,734.8 563.5,734.8 549.3,746.5 560.2,769 539.3,754.8 522.7,769 
		526.8,745.7 	"/>
	<polygon class="st1" points="1044.5,1400 1065.5,1400 1077.5,1380 1084.5,1399 1104.5,1399 1087.5,1413 1100.5,1440 1075.5,1423 
		1055.5,1440 1060.5,1412 	"/>
	<polygon class="st1" points="896.5,696 917.5,696 929.5,676 936.5,695 956.5,695 939.5,709 952.5,736 927.5,719 907.5,736 
		912.5,708 	"/>
	<polygon class="st1" points="550.5,1275.7 567,1275.7 576.3,1260 581.8,1274.9 597.5,1274.9 584.2,1285.8 594.4,1307 574.8,1293.7 
		559.1,1307 563,1285.1 	"/>
</g>
<g id="Слой_9">
	<g>
		<linearGradient id="SVGID_2_" gradientUnits="userSpaceOnUse" x1="1980.884" y1="1602.1604" x2="-680.2359" y2="366.6404">
			<stop  offset="6.983240e-02" style="stop-color:#512A49"/>
			<stop  offset="0.1517" style="stop-color:#4B2948"/>
			<stop  offset="0.261" style="stop-color:#3A2646"/>
			<stop  offset="0.3547" style="stop-color:#262343"/>
			<stop  offset="0.4371" style="stop-color:#1A1937"/>
			<stop  offset="0.5585" style="stop-color:#00041E"/>
		</linearGradient>
		<path class="st2" d="M839,1752c-91.8,0-180.8-18-264.7-53.5c-81-34.3-153.7-83.3-216.1-145.7c-62.4-62.4-111.4-135.1-145.7-216.1
			C177,1252.8,159,1163.8,159,1072s18-180.8,53.5-264.7c34.3-81,83.3-153.7,145.7-216.1c62.4-62.4,135.1-111.4,216.1-145.7
			C658.2,410,747.2,392,839,392s180.8,18,264.7,53.5c81,34.3,153.7,83.3,216.1,145.7c62.4,62.4,111.5,135.1,145.7,216.1
			c35.5,83.9,53.5,172.9,53.5,264.7s-18,180.8-53.5,264.7c-34.3,81-83.3,153.7-145.7,216.1c-62.4,62.4-135.1,111.5-216.1,145.7
			C1019.8,1734,930.8,1752,839,1752z M839,524c-302.2,0-548,245.8-548,548s245.8,548,548,548s548-245.8,548-548S1141.2,524,839,524z
			"/>
	</g>
	<g id="Слой_8">
		<g>
			<linearGradient id="SVGID_3_" gradientUnits="userSpaceOnUse" x1="-86.3504" y1="510.7349" x2="2718.7695" y2="2256.0149">
				<stop  offset="6.983240e-02" style="stop-color:#512A49"/>
				<stop  offset="0.1517" style="stop-color:#4B2948"/>
				<stop  offset="0.261" style="stop-color:#3A2646"/>
				<stop  offset="0.3547" style="stop-color:#262343"/>
				<stop  offset="0.4371" style="stop-color:#1A1937"/>
				<stop  offset="0.5585" style="stop-color:#00041E"/>
				<stop  offset="0.7505" style="stop-color:#000316"/>
				<stop  offset="0.9497" style="stop-color:#000109"/>
			</linearGradient>
			<path class="st3" d="M827,1890c-109.4,0-215.7-21.5-315.7-63.8c-96.6-40.9-183.3-99.3-257.8-173.8s-132.9-161.2-173.8-257.8
				C37.5,1294.7,16,1188.4,16,1079c0-109.4,21.5-215.7,63.8-315.7c40.9-96.6,99.3-183.3,173.8-257.8s161.2-132.9,257.8-173.8
				C611.3,289.5,717.6,268,827,268c109.4,0,215.7,21.5,315.7,63.8c96.6,40.9,183.3,99.3,257.8,173.8s132.9,161.2,173.8,257.8
				c42.3,100,63.8,206.3,63.8,315.7c0,109.4-21.5,215.7-63.8,315.7c-40.9,96.6-99.3,183.3-173.8,257.8s-161.2,132.9-257.8,173.8
				C1042.7,1868.5,936.4,1890,827,1890z M827,442c-351.2,0-637,285.8-637,637s285.8,637,637,637s637-285.8,637-637
				S1178.2,442,827,442z"/>
		</g>
	</g>
</g>
<g id="Слой_11">
	<linearGradient id="SVGID_4_" gradientUnits="userSpaceOnUse" x1="420.5884" y1="116.1588" x2="798.4598" y2="215.4301">
		<stop  offset="0.1957" style="stop-color:#F0B189"/>
		<stop  offset="0.2556" style="stop-color:#EAAC85"/>
		<stop  offset="0.3356" style="stop-color:#D99E7B"/>
		<stop  offset="0.4271" style="stop-color:#BD8869"/>
		<stop  offset="0.5264" style="stop-color:#976851"/>
		<stop  offset="0.5417" style="stop-color:#90634D"/>
		<stop  offset="0.5627" style="stop-color:#8A5E4B"/>
		<stop  offset="0.7333" style="stop-color:#5C393C"/>
		<stop  offset="0.8647" style="stop-color:#402232"/>
		<stop  offset="0.9404" style="stop-color:#351A2F"/>
	</linearGradient>
	<polygon class="st4" points="607,49 641,34 708,34 767,67 810,121 818,164 818,205 810,240 776,291 744,316 701,328 665,334 
		623,327 592,313 569,299 552,276 535,254 524,229 518,194 524,137 543,101 571,72 597,55 	"/>
	<radialGradient id="SVGID_5_" cx="1144.5601" cy="477.16" r="549.6595" gradientUnits="userSpaceOnUse">
		<stop  offset="0.3313" style="stop-color:#5AB2D6"/>
		<stop  offset="0.3814" style="stop-color:#54ADD0"/>
		<stop  offset="0.4485" style="stop-color:#449FBF"/>
		<stop  offset="0.5252" style="stop-color:#2A87A3"/>
		<stop  offset="0.6037" style="stop-color:#08697F"/>
		<stop  offset="0.6691" style="stop-color:#0A5670"/>
		<stop  offset="0.8014" style="stop-color:#0E2548"/>
		<stop  offset="0.8762" style="stop-color:#10062F"/>
	</radialGradient>
	<polygon class="st5" points="1407,450 1461,434 1513,433 1569,457 1606,486 1635,532 1651,583 1647,639 1626,695 1590,737 
		1528,767 1475,775 1419,763 1383,746 1336,693 1312,639 1311,582 1325,529 1365,475 	"/>
	<radialGradient id="SVGID_6_" cx="1148.88" cy="-48.44" r="495.2595" gradientUnits="userSpaceOnUse">
		<stop  offset="0.4096" style="stop-color:#C9C6C9"/>
		<stop  offset="0.5101" style="stop-color:#C3C0C3"/>
		<stop  offset="0.6442" style="stop-color:#B3B1B2"/>
		<stop  offset="0.6578" style="stop-color:#B1AFB0"/>
		<stop  offset="0.7016" style="stop-color:#9E9AA0"/>
		<stop  offset="0.792" style="stop-color:#6F6578"/>
		<stop  offset="0.9123" style="stop-color:#27153B"/>
	</radialGradient>
	<polygon class="st6" points="1415,47 1460,45 1515,65 1545,90 1571,124 1584,165 1584,208 1566,258 1533,296 1474,326 1428,327 
		1394,322 1359,301 1326,265 1304,227 1300,189 1304,146 1320,107 1361,70 1389,51 	"/>
	<radialGradient id="SVGID_7_" cx="1534.8" cy="279.88" r="353.0556" gradientUnits="userSpaceOnUse">
		<stop  offset="0.2896" style="stop-color:#F16746"/>
		<stop  offset="0.3724" style="stop-color:#EB6342"/>
		<stop  offset="0.483" style="stop-color:#DA5836"/>
		<stop  offset="0.6063" style="stop-color:#BF4624"/>
		<stop  offset="0.6599" style="stop-color:#AA3D24"/>
		<stop  offset="0.7704" style="stop-color:#752523"/>
		<stop  offset="0.9123" style="stop-color:#280221"/>
	</radialGradient>
	<polygon class="st7" points="1762,304 1820,325 1851,353 1877,395 1882,438 1875,484 1854,522 1822,549 1774,569 1736,569 
		1700,561 1654,528 1629,487 1620,448 1626,397 1659,343 1705,316 1744,306 	"/>
	<radialGradient id="SVGID_8_" cx="244.56" cy="308.68" r="541.1028" gradientUnits="userSpaceOnUse">
		<stop  offset="0.3354" style="stop-color:#FFB247"/>
		<stop  offset="0.4407" style="stop-color:#FCAC42"/>
		<stop  offset="0.5813" style="stop-color:#F29B35"/>
		<stop  offset="0.6856" style="stop-color:#E98A27"/>
		<stop  offset="0.7025" style="stop-color:#D47B26"/>
		<stop  offset="0.7494" style="stop-color:#A05725"/>
		<stop  offset="0.7956" style="stop-color:#753823"/>
		<stop  offset="0.8399" style="stop-color:#542122"/>
		<stop  offset="0.882" style="stop-color:#3C1022"/>
		<stop  offset="0.9209" style="stop-color:#2D0621"/>
		<stop  offset="0.9535" style="stop-color:#280221"/>
	</radialGradient>
	<polygon class="st8" points="546,372 618,381 662,399 695,431 723,471 738,522 734,577 707,634 658,679 618,695 561,700 521,697 
		479,676 440,638 413,584 403,526 416,479 449,424 494,394 531,376 	"/>
	<radialGradient id="SVGID_9_" cx="375.6" cy="874.6" r="730.2845" gradientUnits="userSpaceOnUse">
		<stop  offset="0.438" style="stop-color:#5DB9D9"/>
		<stop  offset="0.5466" style="stop-color:#58B4D3"/>
		<stop  offset="0.6915" style="stop-color:#48A6C2"/>
		<stop  offset="0.7577" style="stop-color:#3F9DB8"/>
		<stop  offset="0.7829" style="stop-color:#357D9D"/>
		<stop  offset="0.8211" style="stop-color:#285279"/>
		<stop  offset="0.8583" style="stop-color:#1D315D"/>
		<stop  offset="0.8936" style="stop-color:#161949"/>
		<stop  offset="0.9262" style="stop-color:#120A3D"/>
		<stop  offset="0.9535" style="stop-color:#100539"/>
	</radialGradient>
	<polygon class="st9" points="933,597 988,610 1029,637 1058,673 1077,709 1084,746 1083,788 1064,839 1039,865 1012,890 975,909 
		936,916 908,916 872,908 834,886 805,859 787,831 769,785 766,746 776,705 799,664 835,628 877,602 	"/>
	<g id="Слой_14">
		<polygon class="st10" points="995,1784 1605,1686 1662,1747 1080,1849 		"/>
		<polygon class="st11" points="1080,1875 1659,1776 1662,1747 1080,1849 		"/>
		<polygon class="st12" points="997.7,1789.4 1080,1849 1080,1875 990,1817 		"/>
		<g id="Слой_2">
			<linearGradient id="SVGID_10_" gradientUnits="userSpaceOnUse" x1="773.5092" y1="1437.7363" x2="1598.6293" y2="1938.8563">
				<stop  offset="0.3684" style="stop-color:#6F533A"/>
				<stop  offset="0.4218" style="stop-color:#75583E"/>
				<stop  offset="0.4932" style="stop-color:#866549"/>
				<stop  offset="0.5747" style="stop-color:#A27A5B"/>
				<stop  offset="0.6632" style="stop-color:#C89874"/>
				<stop  offset="0.6869" style="stop-color:#D4A17C"/>
				<stop  offset="0.7281" style="stop-color:#BC8D6B"/>
				<stop  offset="0.8147" style="stop-color:#7F593E"/>
				<stop  offset="0.8747" style="stop-color:#51321D"/>
			</linearGradient>
			<path class="st13" d="M989.6,1801.8c0.1-2.9,0.2-7.3,0.5-11.6c0.5-6.7,1-7.4,7.3-8.7c6.9-1.4,13.8-2.6,20.7-3.7
				c42.5-6.9,84.9-13.8,127.4-20.8c38.2-6.3,76.3-12.8,114.5-19.1c38.5-6.4,77-12.6,115.5-18.8c31.6-5.1,63.2-10.2,94.8-15.2
				c30.3-4.9,60.6-9.7,90.9-14.5c11.2-1.8,22.4-3.6,33.6-5.5c2-0.3,4-0.5,5.9-0.8c3.6-0.6,6.6,0.2,9,3.1c1.5,1.8,3.2,3.4,4.9,5.1
				c15.1,15.6,30.2,31.2,45.2,46.8c1.8,1.9,3.7,3.9,5.3,6c1.6,2.2,2.3,4.7,1.7,7.5c-1.7,7.1-3.3,14.3-4.8,21.5
				c-0.8,3.8-3.2,5.5-6.9,6.1c-22.3,4-44.6,8-66.9,12.1c-34.4,6.3-68.9,12.7-103.3,19c-39,7.1-78.1,14.2-117.1,21.3
				c-36.1,6.5-72.2,12.9-108.3,19.3c-27.9,4.9-55.9,9.6-83.8,14.5c-28.6,5-57.1,10.2-85.7,15.3c-2,0.4-3.9,0.7-5.9,1
				c-4.8,0.6-9-0.4-13.2-3.3c-25.5-18.2-51.1-36.4-76.8-54.3c-4.4-3.1-6.3-6.4-5-11.7C989.7,1809.3,989.4,1806.2,989.6,1801.8z
				 M1008,1789.8c7.1,5.1,12.7,9.2,18.4,13.3c17.4,12.4,34.8,24.8,52.1,37.2c2.9,2.1,5.6,2.9,9.2,2.2c22.6-4.2,45.3-8.1,67.9-12.2
				c31.2-5.6,62.3-11.4,93.5-17.1c31.8-5.7,63.7-11.5,95.5-17c29.6-5.2,59.2-10.2,88.8-15.1c29.6-4.9,59.3-9.6,88.9-14.6
				c33.9-5.7,67.7-11.6,101.5-17.5c8.2-1.4,16.4-2.9,24.6-4.4c1.3-0.2,2-2.1,1.2-3.1c-0.8-1-1.7-2-2.6-3
				c-13.2-13.7-26.4-27.4-39.6-41.1c-0.9-1-1.9-1.9-2.8-2.8c-1.2-1.3-2.7-1.9-4.5-1.7c-2.3,0.2-4.7,0.4-7,0.8
				c-22.4,3.7-44.7,7.5-67.1,11.2c-50.3,8.4-100.7,16.7-151,25c-39.2,6.5-78.3,12.9-117.5,19.2c-35.2,5.7-70.5,11.2-105.7,16.7
				c-41.2,6.5-82.4,13-123.5,19.7C1022.2,1786.6,1015.8,1786.8,1008,1789.8z M1085.8,1862.9c-0.1,1-0.2,2-0.2,3
				c-0.2,5.1,0.6,5.8,5.8,4.8c19-3.4,38.1-6.9,57.1-10.4c30.8-5.6,61.7-11.3,92.5-17c34.4-6.3,68.9-12.7,103.3-19
				c31.2-5.7,62.3-11.3,93.5-16.8c32.5-5.7,65.1-11.2,97.6-16.9c36.1-6.3,72.2-12.8,108.4-19.2c2.3-0.4,4.6-0.8,6.8-1.5
				c0.9-0.3,2.1-0.9,2.3-1.7c1.4-4.1,2.9-8.2,2.8-12.6c0-1.1-0.9-1.8-1.9-1.8c-1.3,0-2.6,0.3-3.9,0.5c-31.9,5.6-63.7,11.1-95.6,16.8
				c-35.8,6.4-71.5,13.1-107.3,19.5c-31.5,5.7-63,11.3-94.6,16.8c-29.2,5.1-58.5,10.1-87.8,15c-30.3,5.1-60.5,10-90.8,15.1
				c-25.7,4.3-51.3,8.6-76.9,13.1C1086.5,1852.4,1086.5,1852.5,1085.8,1862.9z M1076.7,1858.3c0-0.4-0.1-1.4,0-2.4
				c0.3-3.2-0.3-5.9-3.5-7.6c-0.9-0.5-1.6-1.2-2.4-1.7c-21.4-15.3-42.8-30.5-64.2-45.8c-1.4-1-2.7-1.9-4.2-2.7
				c-1.1-0.7-3,0.1-3.1,1.3c-0.2,3,0,6-0.5,8.9c-0.9,5.3,1.4,8.5,5.7,11.5c20.8,14.4,41.3,29.1,62.1,43.6c2.5,1.8,4.9,5.8,8.3,3.8
				C1077.5,1865.8,1076.2,1861.7,1076.7,1858.3z"/>
			<path d="M-10.4,367.8c-0.4,1.3-1.3,2.2-2.6,2.3c-1.5,0.1-2.7-1.7-2.2-3.3c0.4-1.4,1.4-1.9,2.9-1.6
				C-11,365.4-10.4,366.4-10.4,367.8z"/>
		</g>
		<g id="Слой_17">
			<path class="st14" d="M1527,1746l21-5h29l22,8l14,17l-1,22l-8,26l-17,21l-19,18l-25,11l-22,5l-24-12l-37-24l-49-22l-57-18l34,81
				l28,11l14,15l10,20l-26,27l-37,19l-28,7l-26-3l-20-47l-32-41l-29-51l-51-6l-24-19l-22-34l-10-34l1-32l9-44l4-46l-4-66l-7-23
				l-27-20l-40-20l-18-27l-20-38l-12-2l-19-70l-9-15l-17-9l-15-2l-3-15l-5-8l-1-11l-8-13l9-14l1-17c0,0,10-12,11-12s0-13,2-13
				s14,0,14,0l35,12l29,46l4,18l58,67l-1,13l27,24l16,6l7,9l24,6l28-4l-31-20l-26-26l-17-32l-6-27l4-38l13-32l28-32l37-23l56-13
				l55,3l39,12l29,17l25,23l17,25l10,25l5,32l-6,30l-13,27l-41,42l28,16l8-6l-5-8l44-86l-1-21l13-45l13-8l8-2l22-14l6,13l11,4l11,14
				l-2,10l12,8l-5,17l3,8l-5,11l4,12l-20,11l-12,14v84l-12,5l-18,35l-23,23l-88,19l3,60l-10,88l77,39l19,5l44,25l7,3L1527,1746z"/>
			<g id="Слой_15">
				<polygon class="st15" points="1165,1248 1188,1232 1251,1219 1302,1218 1358,1227 1399,1246 1415,1261 1428,1299 1426,1342 
					1404,1376 1377,1402 1342,1418 1299,1427 1264,1425 1228,1415 1198,1398 1173,1376 1155,1348 1144,1313 1146,1284 1155,1261 
									"/>
				<g id="Слой_16">
					<polygon class="st1" points="1171,1267 1185,1262 1197,1264 1194,1279 1190,1317 1196,1352 1215,1389 1190,1374 1174,1348 
						1163,1320 1166,1283 					"/>
					<path class="st1" d="M1387,1327v-11l12-5l9,7c0,0,2,8,1,10s-10,7-11,7S1387,1327,1387,1327z"/>
					<polygon class="st1" points="1373,1356 1383,1349 1392,1353 1387,1365 1374,1379 1363,1383 1358,1376 1364,1364 					"/>
				</g>
				<path class="st16" d="M1372.5,1653.2c1.1-1.3,1.2-3.2-0.1-4.5c-1.2-1.2-3.4-1.3-4.6,0c-1,1.1-1.7,2.3-2.2,3.7
					c-0.4,0.2-0.7,0.6-1,1c0,0-0.1,0.1-0.1,0.1c-0.2,0-0.4,0-0.6,0.1c-1.3,0.4-2.4,0.9-3.6,1.6c-0.8-0.2-1.6-0.2-2.4,0.3
					c-2.4,1.4-4.6,2.9-6.6,4.7c-2.1,0.6-4.3,1.3-6.4,2.1c-3.2,1.3-6.1,3-9,4.9c-5.6,3.6-11.1,7.4-16.8,10.8
					c-5.7,3.4-11.6,6.6-17.7,9.4c-3.3,1.5-6.7,2.9-10.1,4.1c-0.3,0.1-0.7,0.3-1,0.4c0.4-1.2,0.9-2.4,1.3-3.5
					c0.2-0.6,0.2-1.2-0.1-1.8c4.4-6.8,7.6-14.1,7.7-22.6c0-1.1-0.6-2.1-1.5-2.7c1.4-4.7,2.5-9.4,3.7-14.1c0.1-0.5,0.1-1,0-1.5
					c0.3-0.3,0.5-0.7,0.7-1.1c2-5.2,3.1-10.6,3.9-16.1c0.7-3.4,1.2-6.7,1.6-10.1c1.6-0.2,2.6-1.5,2.7-3.1c0.5-5.3,0.7-10.6,1.1-15.9
					c0.3-5.1,1.1-10.7-0.5-15.7c-0.1-0.3-0.3-0.7-0.5-0.9c0.4-0.6,0.6-1.2,0.7-2c0.2-3.1,0.4-6.2,0.5-9.2c0.4-0.6,0.7-1.2,0.7-2
					c0.1-4.3,0.3-8.6,0.5-12.9c1.3-11,1.3-22.2,0.4-33.3c0.6-0.5,1.1-1.3,1-2.3c-0.1-1.5-0.4-3-0.8-4.4c-1-5.1-2.1-10.2-3.2-15.3
					c-0.1-0.4-0.2-0.8-0.2-1.2c-0.1-0.7-0.3-1.3-0.4-2c-0.1-2.7-0.2-5.3-0.3-8c0-0.8-0.3-1.4-0.7-1.9c0.8-0.6,1.4-1.5,1.3-2.5
					c-0.6-5.4-1.4-10.8-2.5-16.2c-0.2-1.9-0.5-3.9-0.9-5.8c-0.1-0.5-0.3-0.9-0.6-1.2c-0.6-2.4-1.3-4.9-2-7.3c0,0,0,0,0,0
					c0.9-4.6-0.2-9.5-3.4-13c-0.4-0.5-0.8-1-1.2-1.5c-1-1-2.6-1.1-3.8-0.5c-2-2.7-6-1-5.4,2.4c1.6,9.2,3.9,18.3,5.9,27.4
					c0.2,0.9,0.6,1.4,1.2,1.8c1.4,6,2.8,12,4.2,18c0.4,2.2,0.8,4.5,1.1,6.7c0.2,4.7,0.5,9.4,1.1,14c-0.4,0.5-0.7,1.1-0.7,1.9
					c0.1,17.5,1,35.1,2.6,52.5c-0.2,3.8-0.5,7.7-0.7,11.5c-0.6,0.6-1,1.4-1.1,2.3c-0.6,5.6-1.2,11.3-1.7,16.9
					c-0.1,0.8-0.2,1.5-0.4,2.3c-0.2,0.5-0.4,1-0.4,1.6c-0.1,1.6-0.3,3.2-0.5,4.8c-0.7,4.1-1.3,8.2-1.8,12.2c0,0.4,0,0.7,0.1,1
					c-0.5,3-1,6.1-1.5,9.1c-1.2,6-2.5,11.9-3.7,17.9c-0.3,1.2,0.1,2.5,1,3.3c-4.2,13.3-8.3,26.7-12.4,40c-0.2-0.3-0.5-0.7-0.9-0.9
					c-0.6-0.4-1.3-0.8-1.9-1.2c0,0,0-0.1,0-0.1c0.6-1.4,0.2-3.4-1.3-4.1c-3.1-1.5-6.3-2.9-9.4-4.4c-0.4-0.4-0.9-0.7-1.4-0.9
					c-22.7-9.4-45.5-18.5-68.5-27.1c-6.4-2.4-12.9-4.8-19.4-7.1c0,0-0.1,0-0.1,0c0-0.1-0.1-0.3-0.1-0.4c-0.5-1.6-2.1-2.6-3.8-2.2
					c-1.5,0.4-2.3,1.8-2.2,3.2c0,0,0,0-0.1,0.1c-0.9,1.4-1.1,3.1-1.4,4.7c-0.3,1.6-0.5,3.2-0.6,4.7c-0.2,2.9-0.2,5.8,0.2,8.7
					c0,0.2,0.1,0.4,0.1,0.6c0,0,0,0.1,0,0.1c-0.1,0.9-0.1,1.7,0,2.6c0.1,1.3,0.9,2.6,2.2,3c0.3,0.6,0.4,1,0.9,1.6
					c0.2,0.2,0.5,0.5,0.8,0.6c0.3,0.2,0.6,0.3,0.9,0.4c0,0,0,0,0,0c0,0,0,0,0.1,0c0.1,0,0.1,0,0.2,0c0.4,0.8,1.1,1.4,2,1.7
					c24.3,10.1,49.1,19.1,74.3,26.8c6,1.8,12.1,3.6,18.1,5.3c-0.2,1,0.1,2.3,0.9,3c2.5,2,5.3,2.9,8.5,2.5c0.4,0.4,0.8,0.7,1.4,0.9
					c1.4,0.4,3-0.4,3.5-1.7c5.1,2.1,10.8,2.5,16,0.8c2.6-0.2,5.1-0.5,7.7-1.1c4.7-1,9-3,13-5.7c1.5,0.4,3.1,0.1,4.6-0.4
					c1.6-0.4,3.2-1,4.8-1.7c3-1.3,5.7-3.1,8.1-5.2c1.5-1.3,3-2.9,4-4.7c1.4-0.6,2.8-1.3,4.1-1.9c2.8-1.3,5.5-2.7,8.1-4.3
					c2.6-1.6,5.1-3.5,7.1-5.9c0,0,0.1-0.1,0.1-0.1c0.1,0,0.1,0.1,0.2,0.1c1.5,0.6,3,0,3.9-1.3c4.5-6.7,6.7-15.3,5.7-23.3
					C1372.6,1653.5,1372.6,1653.4,1372.5,1653.2z M1287.1,1701.9c0.2-0.6,0.3-1.1,0.5-1.7c0.1,0.7,0.3,1.4,0.8,2
					C1287.9,1702.1,1287.5,1702,1287.1,1701.9z"/>
				<path class="st16" d="M1588.8,1745.5c-4.9-4-11.5-3.9-17-1c-2.5,1.3-4.8,3.2-6.8,5.2c-0.9-0.6-2.1-0.8-3.3,0
					c-8.6,5.2-16.1,12.3-21.8,20.6c-0.3,0.2-0.6,0.3-0.9,0.6c-8.3,7.6-15.1,16.8-19.9,26.9c-0.6,0.8-1.3,1.7-1.9,2.5
					c-1.2-0.5-2.8-0.4-3.7,0.6c-0.2,0.2-0.3,0.5-0.5,0.7c0,0,0,0,0,0c0,0-0.1,0.1-0.1,0.1c-1.7,2.3-3,4.7-4,7.3
					c-2.6,5.3-4.5,11-5.8,16.7c-0.2,0.8-0.1,1.6,0.3,2.3c-0.4,1.5-0.8,3-1.2,4.5c-0.6,0.4-1,1-1.3,1.7c-0.1,0.2-0.1,0.4-0.2,0.6
					c-1.1,0-2.1,0.4-2.8,1.5c-1.9,3-2.4,6.8-1.4,10.1c-0.1,0.4-0.2,0.9-0.3,1.3c-0.3,0.9,0,2.2,0.7,3c-0.1,0.5-0.1,1.1,0,1.7
					c0.7,3.8,4.8,6,8.5,5.6c0.8,0.5,1.5,1,2.2,1.5c-0.1,1.5,0.7,3,2.3,3.4c1.6,0.4,3.5-0.5,3.9-2.2c1.5-6.8,2.2-13.7,2.2-20.6
					c0.1-0.1,0.2-0.2,0.2-0.4c2.3-5.2,4.5-10.4,6.8-15.6c1.1-2.6,2.3-5.2,3.4-7.8c0.2-0.4,0.3-0.9,0.5-1.3c2.8-4.9,5.8-9.8,8.9-14.6
					c0.5-0.8,0.6-1.7,0.3-2.6c1.5-2.3,3.1-4.6,4.9-6.6c3.7-4.3,7.9-8.4,10.7-13.4c4.6-4.7,9.5-9.2,14.5-13.5
					c0.6-0.1,1.1-0.4,1.5-0.8c0.6-0.6,1.2-1.2,1.8-1.8c3.3-2.6,6.7-5.2,10.2-7.6c0.1-0.1,0.2-0.2,0.3-0.3c2.4-1.3,4.9-2.5,7.5-3.4
					C1589.5,1750.2,1590.9,1747.1,1588.8,1745.5z M1506.7,1839.2c0.1-0.1,0.1-0.1,0.2-0.2c0,0.8,0,1.5,0.1,2.3
					c0.1,0.9,0.2,1.9,0.3,2.8c-0.3,0.9-0.5,1.9-0.6,2.8C1506.8,1844.4,1506.8,1841.8,1506.7,1839.2z"/>
				<path class="st16" d="M1434.7,1910.3c-1.7-2.4-4.1-4.2-7.1-4.6c-2.1-0.3-4.1,0.2-5.6,1.3c-0.2,0.1-0.4,0.2-0.6,0.3
					c-1.2,0.8-2,1.9-2.5,3c-0.7,0.3-1.3,0.7-1.9,1.2c-0.6,0.5-1.1,1-1.6,1.6c-1,0.4-1.9,1-2.7,1.9c-0.4,0.5-0.8,1-1,1.6
					c-2.7,1.2-4.5,3.6-5.2,6.4c0,0-0.1,0.1-0.1,0.1c-0.1,0-0.1,0-0.2,0.1c-1.4,0.6-2.6,1.4-3.6,2.5c-0.3,0-0.7,0-1,0
					c-3,0.1-5.1,1.7-6.5,3.8c-0.8,0.4-1.6,1-2.2,1.7c-0.5,0.6-0.9,1.3-1.2,2c-1.5,0.2-2.9,0.9-4.1,1.8c-2.3-0.4-4.6,0-6.8,1.4
					c-1.2,0.8-2.1,1.8-2.8,2.9c-0.8,0.4-1.6,0.9-2.3,1.4c-0.8,0.7-1.4,1.4-2,2.2c-0.8-0.1-1.7-0.1-2.6,0c-0.8,0.1-1.4,0.4-2,0.7
					c-2.1,0.3-4,1.2-5.5,2.6c-0.6,0.5-1.1,1.2-1.4,1.8c-2.7-0.6-5.6-0.2-7.8,1.5c-1.2-0.2-2.4-0.3-3.6-0.1c-2.6,0.3-5.2,1.2-6.6,3.3
					c-3.1-0.3-6.6,0.7-7.8,3.9c0,0,0,0.1,0,0.1c0,0,0,0-0.1,0c-2.9-1.8-6.2-3.1-9.6-1.7c-0.4,0.2-0.8,0.4-1.2,0.7
					c-1.7,0.2-3,1.8-2.9,3.5c-0.1,0.2-0.1,0.4-0.2,0.6c-0.6,2.4,0.5,4.9,2.3,6.5c1.4,1.3,3.3,2.5,5.2,2.9c0.9,0.2,1.7,0.1,2.5-0.1
					c1.3,0.3,2.7,0.4,3.9,0c1.7,1.5,3.9,2.5,6.1,3.2c1.6,0.5,3.1-0.4,3.8-1.7c0.9,0.2,1.8,0.2,2.7,0c2.3,1.1,5,1.7,7.5,0.8
					c1-0.4,1.8-0.9,2.4-1.6c1.1,0.5,2.2,0.7,3.5,0.6c2.2-0.1,3.8-1.3,4.7-2.9c1.7,0.2,3.4-0.2,4.7-1.2c0.9,0.1,1.8,0.1,2.7-0.1
					c0.1,0,0.2-0.1,0.3-0.1c0,0,0,0,0,0c3,0.8,5.8-0.9,7.2-3.5c0.5,0.1,1,0.1,1.5,0.1c2.5-0.1,4.6-1.6,5.9-3.7
					c1.6-1.1,2.5-2.6,3-4.3c1.4-0.1,2.6-0.6,3.6-1.5c1,0.2,2,0.3,3,0c1.7-0.4,3-1.6,3.9-3c0.6,0,1.2,0,1.8-0.1
					c2.1-0.3,3.9-1.7,5-3.4c0.2-0.1,0.4-0.2,0.6-0.3c0.5-0.3,1-0.6,1.3-1c1.2-0.2,2.4-0.7,3.4-1.6c1-0.8,1.7-1.8,2.2-3
					c0.9-0.4,1.6-1.1,2.2-1.9c0.6-0.3,1.2-0.7,1.6-1.3c0.6-0.7,1.1-1.6,1.4-2.5c0.3-0.2,0.6-0.4,0.9-0.6c0.6-0.5,1.1-1.2,1.5-1.9
					c2.8-0.5,4.9-2.6,5.3-5.4c0.1,0,0.3-0.1,0.4-0.1c1.3,0.2,2.6-0.4,3.3-1.5c0,0,0-0.1,0.1-0.1c2.4-1.7,3.4-5,3.5-7.8
					C1437.3,1915.5,1436.3,1912.6,1434.7,1910.3z"/>
				<path class="st17" d="M1293.5,1627.4c0.4-1.9,0.6-3.9,0.3-5.7c0-0.1,0-0.3,0-0.4c0.1-0.9-0.4-1.8-1.1-2.4
					c-0.4-0.6-1-1.2-1.7-1.5c-0.4-0.2-0.8-0.4-1.2-0.5c-0.3-1-1.2-1.8-2.2-2.2c-28.3-11.1-56.5-22.4-84.7-33.9
					c-2.6-1.1-5.2-2.1-7.8-3.2c-1.3-0.7-2.6-1.5-3.9-2.2c-3.8-2.1-7.7-3.8-12.1-4.5c0,0,0,0,0,0c0,0,0,0,0,0c-0.3,0-0.6-0.1-0.9-0.1
					c-1.6-0.2-3,1.4-3.2,2.8c-0.1,0.6,0,1.1,0.2,1.6c-0.2,0.4-0.3,0.9-0.3,1.3c-0.1,1.2-0.1,2.4-0.1,3.6c-0.4,0.5-0.7,1.2-0.8,2
					c-0.1,1.8-0.1,3.5,0,5.3c-0.2,2.3-0.3,4.7-0.1,7.1c0.1,1.2,0.7,2.3,1.7,2.9c0.6,1.1,1.7,1.6,2.9,2.2c1,0.5,2,1,3.1,1.5
					c7.8,3.7,15.6,7.5,23.4,11.1c15.9,7.3,32,14.2,48.5,20c9.2,3.3,18.6,6.3,28,8.8c0.7,0.2,1.5,0.1,2.1-0.2
					c0.1,0.2,0.2,0.4,0.4,0.6c0.7,1,1.8,1.7,3,1.5c0.7-0.1,1.5-0.5,2-1.1c1-0.1,2-0.6,2.6-1.6c1.8-2.8,2.7-6.2,2.6-9.5
					C1294,1629.5,1293.9,1628.4,1293.5,1627.4z"/>
				<path class="st17" d="M1377.7,1575.8c-1.3-0.5-2.7-0.3-3.7,0.7c-8.3,7.8-19.6,11.7-29.2,17.7c-5.6,3.5-10.8,7.7-16.1,11.7
					c-2.6,2-5.2,4-7.8,6c-2.7,2.1-5.7,4-8.2,6.4c-2.9,2.8-3,6.7-3.4,10.5c-0.3,3.2-0.5,6.4-0.7,9.6c-1.5,1-1.9,3.1-1,4.6
					c1,1.6,3.1,2.2,4.7,1.2c11.7-6.7,23.4-13.2,35.3-19.5c5.8-3.1,11.6-6.2,17.4-9.2c1.5-0.8,2.9-1.5,4.4-2.3
					c1.4-0.7,2.9-1.3,4.1-2.3c3.1-2.3,2.9-6.1,3.4-9.6c1-7.5,2-15,2.9-22.5C1379.9,1577.6,1378.8,1576.2,1377.7,1575.8z"/>
				<polygon class="st15" points="1173,1533 1299,1576 1296,1617 1172,1566 				"/>
				<polygon class="st15" points="1319,1568 1379,1526 1381,1569 1313,1615 1315,1569 				"/>
			</g>
			<g id="Слой_18">
				<radialGradient id="SVGID_11_" cx="788.16" cy="1291.48" r="309.7549" gradientUnits="userSpaceOnUse">
					<stop  offset="0.2626" style="stop-color:#073E6D"/>
					<stop  offset="0.3794" style="stop-color:#063A67"/>
					<stop  offset="0.5355" style="stop-color:#042E56"/>
					<stop  offset="0.7132" style="stop-color:#011B3A"/>
					<stop  offset="0.7373" style="stop-color:#011836"/>
					<stop  offset="0.8317" style="stop-color:#011733"/>
					<stop  offset="0.8984" style="stop-color:#01122A"/>
					<stop  offset="0.9563" style="stop-color:#000A1A"/>
					<stop  offset="1" style="stop-color:#000109"/>
				</radialGradient>
				<polygon class="st18" points="1021,1420 1042,1422 1068,1410 1095,1389 1108,1366 1048,1295 1042,1275 1016,1232 990,1227 
					970,1221 967,1235 956,1237 951,1258 953,1264 945,1274 954,1290 952,1302 960,1307 960,1321 968,1326 980,1327 993,1337 
					1004,1352 				"/>
				<radialGradient id="SVGID_12_" cx="1647.84" cy="1263.4" r="247.4497" gradientUnits="userSpaceOnUse">
					<stop  offset="0.2626" style="stop-color:#073E6D"/>
					<stop  offset="0.3794" style="stop-color:#063A67"/>
					<stop  offset="0.5355" style="stop-color:#042E56"/>
					<stop  offset="0.7132" style="stop-color:#011B3A"/>
					<stop  offset="0.7373" style="stop-color:#011836"/>
					<stop  offset="0.8317" style="stop-color:#011733"/>
					<stop  offset="0.8984" style="stop-color:#01122A"/>
					<stop  offset="0.9563" style="stop-color:#000A1A"/>
					<stop  offset="1" style="stop-color:#000109"/>
				</radialGradient>
				<polygon class="st19" points="1459,1336 1458,1306 1474,1259 1491,1254 1517,1237 1522,1251 1533,1255 1543,1266 1543,1276 
					1556,1286 1551,1304 1554,1315 1548,1322 1551,1333 1546,1340 1531,1343 1520,1361 1518,1371 1518,1444 1491,1446 1457,1439 
					1429,1425 1415,1412 1453,1341 				"/>
			</g>
			<g id="Слой_19">
				<path class="st20" d="M1389.2,1417.4c-0.1,0.2-0.3,0.4-0.4,0.6c-0.2-1.9-2.1-3.4-4.2-3c-0.3,0.1-0.6,0.1-0.8,0.2
					c-1.6-0.2-3.5,0.9-4.9,1.5c0,0,0,0,0,0c-0.7,0.3-1.3,0.6-2,0.9c-0.8-0.2-1.7-0.1-2.5,0.4c-7.1,4-14.4,7.4-21.9,10.4
					c-5.8,1.3-11.6,2.8-17.3,4.6c-0.7,0.2-1.3,0.6-1.7,1.1c-17.1-2.2-34.4-1.5-51.2,2.1c-1,0.2-1.7,0.8-2,1.6c0,0,0,0-0.1,0
					c-0.2-0.1-0.5-0.2-0.8-0.3c-8.1-1.4-16.1-2.8-24.2-4.2c-3.7-0.9-7.3-1.9-10.9-2.9c-1-0.3-2,0-2.8,0.5c-2.4-0.4-4.8-0.8-7.2-1.3
					c-8-3.4-16.7-5.2-25.4-5.4c-2.1-0.2-4.1-0.1-6.2,0.1c-1.9,0.1-3.7,0.3-5.6,0.6c-0.1-0.1-0.3-0.2-0.4-0.3
					c-0.1-0.1-0.2-0.1-0.3-0.2c-0.1-0.1-0.2-0.2-0.3-0.3c-0.1-0.1-0.2-0.1-0.3-0.2c0,0,0,0,0,0c-0.2-0.1-0.4-0.3-0.5-0.4
					c-0.1-0.1-0.2-0.2-0.3-0.3c-0.1-0.1-0.2-0.2-0.3-0.3c-0.4-0.3-0.4-0.3,0,0c-0.1-0.2-0.4-0.4-0.6-0.5c-0.9-0.9-2.4-1-3.4-0.2
					c-1,0.8-1.4,2.2-0.7,3.3c0,0,0,0,0,0.1c-0.2-0.1-0.3-0.2-0.5-0.3c-1.6-1-3.1-2-4.7-3c-2.3-1.5-5.2,2.1-3,3.9
					c3,2.4,6.2,4.7,9.4,6.8c0.2,0.3,0.5,0.5,0.8,0.7c1.1,0.7,2.3,1.4,3.4,2c8.4,5.2,17.4,9.6,26.5,13.3c14.1,5.8,28.8,9.9,43.8,12.5
					c15.2,2.7,30.8,3.7,46.2,3.1c7.8-0.3,15.6-1,23.3-2.1c8-1.1,16.1-2.5,23.6-5.5c7.5-3,14-7.5,19.6-13.3
					c5.2-5.5,9.6-11.9,13.6-18.3c1-1.6,2-3.2,3-4.9C1397.2,1417.1,1391.4,1413.8,1389.2,1417.4z M1360.6,1449.3c-1,0.5-2,1-3,1.4
					c0-0.1,0-0.2,0-0.3c0.1,0,0.2,0,0.3,0c0.4-0.1,0.8-0.2,1.1-0.5c0.6-0.2,1.3-0.5,1.9-0.8
					C1360.8,1449.2,1360.7,1449.2,1360.6,1449.3z"/>
				<path class="st20" d="M1501.3,1449.6c-0.5,0-1,0.1-1.5,0.1c-0.2-0.8-0.4-1.5-0.8-2.3c-0.6-1.4-2.5-1.6-3.7-1
					c-0.2,0.1-0.3,0.2-0.5,0.3c-0.2,0-0.3,0-0.5,0.1c-2.1,0.6-3.9,1.8-5.7,3.1c-1.8,1.3-3.5,2.7-5,4.2c-3,2.9-5.5,6.2-7.9,9.5
					c-4.6,6.4-8.8,13.1-15.4,17.7c-6.9,4.9-15,7.9-23,10.5c-8.5,2.7-17.2,4.7-26.1,5.9c-4.9,0.7-9.9,1.1-14.9,1.2
					c-5.1,0.2-10.2-0.3-15.3,0.1c-2.5,0.2-3.3,4-0.6,4.6c0.1,0,0.2,0,0.3,0.1c-0.1,0.2-0.2,0.4-0.3,0.7c-1.9,5-1.5,10.3,0.5,15.2
					c0.4,1,1.7,1.6,2.7,1.6c8.7-0.1,17.5-1.2,25.9-3.3c3.8-0.9,7.5-2,11.1-3.3c2.7-0.2,5.4-0.3,8.1-0.5c3.4-0.2,6.7-0.7,9.5-2.5
					c3.3-0.7,6.4-2.2,9.5-4c2.9-0.3,5.7-1,8.4-2.2c3.7-0.8,7-2.7,9.7-5.2c0.1-0.1,0.2-0.1,0.3-0.2c0.4-0.1,0.8-0.3,1.2-0.5
					c4-1.6,7.8-3.8,10.6-7.3c1.7-2.2,3-4.7,3.6-7.3c1.9-1.9,3.7-3.8,5.4-5.9c2-2.5,4.6-5.8,5.6-9.1c5.8-3.8,10-9.9,11.4-16.7
					C1504.4,1451.5,1503.2,1449.6,1501.3,1449.6z"/>
				<path class="st20" d="M1593.8,1754.3c-0.2-1.2-1.1-1.9-2.3-2c-6.9-0.6-12.1,5.6-15.3,11c-0.2,0.3-0.3,0.5-0.4,0.8
					c-1.1-0.6-2.7-0.5-3.5,0.5c-2.5,3-4.8,6.1-6.9,9.4c-0.2,0.1-0.4,0.1-0.5,0.2c-12.6,7.3-23.2,18.1-30.3,30.8c-0.5,1-1.1,2-1.6,3
					c-1.4,2.7-2.6,5.5-3.6,8.4c-0.4,1.2,0.2,2.5,1.1,3.2c-1.1,2.5-2.1,5.1-3.1,7.7c-13.5-6.1-27.1-12.1-40.7-18.2
					c-15.2-6.8-30.5-13.4-45.4-20.7c-7.2-3.5-14.2-7.3-21-11.6c-6.2-3.9-12.2-8.3-18.4-12.4c-6-4-12.3-7.8-19-10.6
					c-6.3-2.7-12.8-4.2-19.6-5.3c-12-2.1-25-3.1-35.3-10.3c-1.2-0.8-2.4-1.8-3.5-2.7c-2.1-1.7-4.5,0.8-2.9,2.9
					c0.7,0.9,1.5,1.7,2.3,2.5c-0.2,0.7-0.1,1.6,0.5,2.3c1.3,1.6,3.6,2.6,5.4,3.6c0.9,0.5,1.8,1,2.7,1.5c0,0,0,0,0,0
					c-0.8,1-0.9,2.4-0.2,3.5c3.5,6.3,6.7,12.7,10.4,19c0.7,1.2,1.7,2.4,3,3c0.2,0.5,0.4,0.9,0.6,1.4c0.8,2.8,2,5.4,3.8,7.6
					c-0.1,0.9,0.2,1.8,0.9,2.5c0.8,0.8,1.6,1.6,2.4,2.3c0.1,1,0.5,1.9,1.5,2.4c2.6,1.4,5.3,2.8,8,4c1.4,0.7,2.9,1.4,4.4,1.9
					c4.8,2,9.8,3.7,14.9,5c1.6,0.4,2.9-0.4,3.6-1.6c3.4,1.2,6.8,2.4,10.2,3.6c12.1,5.9,24.5,11,37.3,15.1c1.4,0.4,2.9-0.3,3.6-1.5
					c0.6,0.3,1.2,0.5,1.9,0.8l7.4,4c0.2,0.5,0.7,1,1.3,1.4c11.9,7,23.8,14.1,35.7,21.1c10.3,9.2,22.4,16.1,35.5,20.5
					c0.2,0.1,0.5,0.1,0.7,0.1c0.8,1.4,2.9,1.9,4.3,1.1c0.5-0.3,1-0.6,1.5-1c0.4,0.2,0.9,0.3,1.3,0.4c1,0.1,1.9,0.1,2.9,0
					c0.9,1.2,2.3,2,3.9,1.9c1.8-0.1,3.8-0.9,5.5-1.6c2.5-1,5-2.2,7.2-3.7c-0.1,0.1-0.1,0.2-0.2,0.3c-0.7,1.2-0.4,2.8,0.7,3.7
					c1.2,0.9,2.6,0.7,3.8-0.2c4.6-3.8,9.4-7.4,13.8-11.4c1.3-1.2,2.4-2.6,2.9-4.2c0,0,0.1,0.1,0.1,0.1c2.6,2.7,6.7-1.4,4.1-4.1
					c-8.5-8.7-7.4-22.6-5.5-33.8c2.6-14.7,7.2-29.1,13.7-42.4c2.8-5.7,6.3-11.3,12.8-12.6C1593.3,1756.6,1594,1755.3,1593.8,1754.3z
					 M1388.9,1763c-4.9-2.7-10-5-15.3-6.8c-0.3-0.2-0.7-0.3-1-0.4c-0.1,0-0.2-0.1-0.2-0.1c-0.1,0-0.3-0.1-0.4-0.1
					c0.9,0.3,1.9,0.5,2.8,0.8c5.8,1.9,11.3,4.6,16.5,7.7C1390.5,1763.8,1389.7,1763.4,1388.9,1763z M1515.6,1851.2c-1-1-2-2-3-3
					c0.2,0.1,0.5,0.2,0.7,0.2c1.1,1,2.2,2,3.2,3.1C1516.2,1851.5,1515.9,1851.4,1515.6,1851.2z M1525,1834.3
					c-0.3-0.2-0.6-0.3-0.9-0.4c-1.2-0.2-2.5-0.4-3.7-0.7c-0.7-0.5-1.3-1-2-1.4c-1.9-1.8-3.9-3.5-6.1-5c4,1.8,8,3.6,12.1,5.5
					c0.4,0.2,0.7,0.3,1.1,0.5C1525.3,1833.3,1525.2,1833.8,1525,1834.3z M1553.9,1841.9c-0.1-0.3-0.3-0.5-0.5-0.8c0,0,0,0,0,0
					c0.2-0.1,0.4-0.2,0.6-0.4c0,0.1,0.1,0.3,0.1,0.4c0.1,0.4,0.2,0.7,0.4,1C1554.3,1842,1554.1,1841.9,1553.9,1841.9z"/>
				<path class="st20" d="M1406.9,1944.9c-14.7-1.5-29.5-2.8-44.2-4.6c-11.8-1.4-23.9-3.4-34.8-8.4c-6.1-2.8-11.4-6.8-17-10.5
					c-0.4-0.3-0.8-0.3-1.2-0.3c-1.1-1.7-2.1-3.4-3.2-5c-6.6-9.8-13.8-19-20.9-28.4c-7-9.2-13.7-18.7-18.9-29.1
					c-2.5-5-4.4-10-5.9-15.6c-0.7-2.8-1.4-5.5-2.9-7.9c-1.6-2.5-3.7-4.6-6.2-6.4c-5.1-3.7-11.2-5.5-17.4-6.6
					c-0.6-0.3-1.3-0.5-1.9-0.7c-1.3-0.6-2.6-0.9-4.1-1c-4.3-1-8.5-2.3-12.5-4c-8.4-3.4-16.4-8.2-23.4-13.9c-1.6-1.3-3.1-2.6-4.5-4
					c-1-1.5-1.9-3.1-2.9-4.6c-8-13.4-13.7-28-17.2-43.2c-3.6-15.7-4.3-31.8-2.7-47.9c1.8-17.6,5.8-35,6.3-52.7
					c0.3-9-0.5-17.9,1.2-26.9c1.5-7.5,3.4-14.9,4.4-22.5c1.8-13.4,1.8-27.1-0.4-40.5c-2.1-12.9-6.5-25.8-13.6-36.9
					c-3.4-5.4-7.5-10.4-12.1-14.8c-5.7-5.4-12.2-9.6-19-13.5c-7-4-14.1-7.8-20.6-12.4c-6.4-4.5-12.3-9.7-17.9-15.3
					c-11.1-11.1-20.5-23.6-29.7-36.2c-2.3-3.1-4.6-6.2-6.9-9.2c-1.7-2.1-5.1,0.6-3.7,2.9c8.4,13.4,18.1,26.3,28.6,38.1
					c9,10.2,19.1,19.5,30.4,27.1c-0.3,0.2-0.7,0.5-0.9,0.8c-2.9-1.7-5.9-3.3-8.9-4.8c-0.6-0.3-1.2-0.4-1.9-0.4
					c-2.3-2.1-4.5-4.2-6.8-6.4c-1.1-1-2.1-2-3.2-3c0.3-1,0.2-2.1-0.7-3.1c-5.2-6.3-10.7-12.4-16.4-18.3c-2.7-4.3-5.7-8.3-9.1-12.1
					c-2.9-4.4-5.7-8.9-8.4-13.4c-0.4-0.6-1-1.1-1.6-1.3c0-0.6-0.1-1.2-0.4-1.7c-1.1-2.2-3.7-3.5-6.1-3.3c0,0-0.1,0-0.1,0
					c-1.1,0-2.2,0.3-3.2,0.8c-1.5,0.8-2.8,2.2-3.2,3.9c-0.6,2.4,0.1,4.8,0.7,7c1.1,4.1,2.5,8.2,4.2,12.2c0.9,2.1,1.7,4.1,2.7,6.1
					c1,2,1.9,4.1,3.2,6c0.6,0.9,1.5,1.5,2.5,1.5c1.4,3.3,2.9,6.6,4.3,9.9c1.2,2.8,2.7,7.7,6.2,8.1c2.4,5.3,5.8,10.2,10.1,14.2
					c0,0,0-0.1,0-0.1c0.8-1.1,2.5-1.5,3.7-0.7c1.9,1.3,3.9,2.5,5.9,3.7c0.9-1,2.5-1.1,3.6-0.5c0.5,0.3,0.9,0.6,1.2,1
					c0.5,0.1,1.1,0.3,1.5,0.7c0.2,0.2,0.4,0.4,0.5,0.7c2.2,1.2,4.3,2.3,6.5,3.5c3.1,2,6.4,3.8,9.9,5.4c0.6,0.3,1.3,0.4,1.9,0.4
					l18.2,10.8c0.3,0.2,0.6,0.3,0.9,0.3c1.4,1,2.8,2,4.2,3c0.1,0,0.1,0.1,0.2,0.1c1.3,1.5,2.7,2.9,4.1,4.4c-0.4,0.9-0.5,1.9,0.1,3
					c0.7,1.4,1.4,2.7,2.2,4.1c0.6,1.1,1.8,1.6,3,1.6c1.4,1.8,2.6,3.8,3.7,5.9c-0.7,0.8-1,2-0.8,3.2c1.9,13.3,3.8,26.7,5.7,40
					c-2,16.1-2.4,32.4-1.1,48.6c-2.1,11.3-3.8,22.6-4.4,34.1c-5,15.4-8,31.4-8.9,47.5c-0.1,1,0.4,1.7,1,2.3c-0.4,4-0.7,8-1.1,12
					c-0.4,4.3-0.5,9.8,2,13.5c0.1,0.5,0.2,1,0.3,1.4c-0.3,0.5-0.5,1-0.5,1.6c0,8.6,2.2,17.1,6.1,24.7c2.8,9.6,7.6,18.6,13.9,26.5
					c2.7,3.4,5.8,6.5,9.1,9.4c0.8,0.7,1.8,1,2.7,0.9c0.1,0.1,0.1,0.2,0.2,0.3c6.9,10,17.8,16.5,29.9,17.9c0.6,0.1,1.1-0.1,1.6-0.4
					c1.2,0.7,2.3,1.4,3.6,2c3.2,1.5,6.5,2.5,10.1,2.7c0.4,0,0.8,0,1.2-0.2c3.5,1.1,7.1,2.1,10.8,3c2.2,0.5,3.6-1.2,3.6-3
					c0.6,0.1,1.2,0.2,1.8,0.3c0.2,0.2,0.3,0.5,0.5,0.8c0.5,1,1.9,1.5,2.9,1.2c0.6-0.2,1-0.5,1.3-0.9c1.2,0.3,2.4,0.7,3.6,1.1
					c1.4,0.5,2.5,1,3.9,1.8c0.7,0.4,1.3,0.8,2,1.2c0.8,0.6,1,0.7,1.7,1.3c0.6,0.5,1.1,1,1.6,1.5c0.6,0.7,0.8,0.8,1.2,1.4
					c0.9,1.3,1.4,2.3,1.8,3.6c1,3.2,1.7,6.5,2.8,9.6c2.3,6.4,5.3,12.5,8.7,18.4c6.9,11.7,15.7,22.5,23.9,33.1
					c4.1,5.4,8.4,10.7,12.2,16.4c3.7,5.6,7.2,11.4,10,17.5c0.7,1.5,1.4,2.9,1.9,4.4c0.7,1.8,0.6,3.9,1.6,5.6c0.6,1,1.4,1.8,2.4,2.3
					c0.4,1.7,1.1,3.4,1.8,5c0,1.3-0.3,2.7,0,3.9c0.4,1.8,1.4,3.6,3,4.6c1,2.3,3,4.3,5.2,5.5c3,1.7,6.6,2.1,9.8,0.8
					c6.8,1.9,14.2,1.4,20.7-1.5c0,0,0.1,0,0.1,0c13.5-0.1,26.8-4.2,38.2-11.4c1-0.7,1.7-1.9,1.5-3.1c0.5-0.7,0.7-1.7,0.6-2.5
					c2.9,0.3,5.9,0.7,8.8,1c1.6,0.2,3-1.5,3-3C1410,1946.2,1408.6,1945.1,1406.9,1944.9z M1171,1599.5c-0.1,0.7-0.2,1.5-0.3,2.2
					c0-0.6,0-1.2,0-1.9C1170.7,1599.8,1170.9,1599.7,1171,1599.5z M1051.2,1442.5c-0.2-0.4-0.3-0.9-0.5-1.3c0.4,0.5,0.7,0.9,1.1,1.4
					C1051.7,1442.6,1051.4,1442.5,1051.2,1442.5z M1163.9,1667.2c0-0.7-0.1-1.5-0.2-2.2c0.1,0.1,0.3,0.1,0.4,0.2
					C1164.1,1665.8,1164,1666.5,1163.9,1667.2z M1317,1932.3c-0.3,0.1-0.6,0.2-0.8,0.3c-0.2-0.4-0.4-0.9-0.6-1.3
					C1316,1931.7,1316.5,1932,1317,1932.3z"/>
			</g>
			<g id="Слой_4">
				<g>
					<path d="M1361.4,1800.1c-0.6,1.4,0.1,2.6,0.6,3.7c9.3,21,18.8,41.9,26.5,63.6c1,2.8,2.5,4.1,5.6,4.7
						c18.6,4.2,32.4,15.1,41.5,31.7c2.2,4.1,4.1,8.4,6.2,12.5c1.4,2.7,1.1,5.2-0.6,7.5c-1.8,2.4-3.7,4.8-5.7,6.9
						c-21.9,22.7-47.9,37.9-79,44c-9.5,1.9-19.1,2-28.7-0.5c-5-1.3-8-4.2-9.9-8.9c-3.4-8.7-7.4-17.1-10.8-25.8
						c-4-10-9.6-19-16.2-27.4c-8.2-10.5-16.5-20.9-24.7-31.5c-7.2-9.3-13.3-19.2-17.1-30.4c-3-8.9-8.9-13.7-17.8-15.4
						c-2.9-0.5-5.9-0.9-8.9-1.3c-5.3-0.6-10.6-1.1-15.9-1.8c-12.7-1.5-23.7-6.9-32.9-15.6c-33.2-31.6-47.3-70.1-41-115.7
						c1-6.9,0.9-14,3-20.7c0.4-1.3,0.4-2.7,0.9-3.9c5.6-13.5,5.2-28,7.2-42.2c3.9-27.7,1.3-55.2-2.3-82.7
						c-2.1-16.2-2.4-19.5-18.7-31c-8.7-6.1-18-11.4-27.5-16.2c-5.6-2.9-11.3-5.7-16.9-8.7c-8.1-4.4-14.6-10.5-19.1-18.6
						c-7.9-14.3-16-28.4-23.8-42.8c-2.5-4.6-4.6-8.7-10.9-8.6c-3.6,0.1-5.8-2.7-6.8-6.3c-2.6-9.3-5.6-18.5-8.1-27.8
						c-3.2-11.9-6.1-23.9-9.1-35.8c-0.7-2.7-2.7-4.6-3.7-6.9c-3.1-7.5-8.7-12-15.5-15.8c-4.1-2.3-7.7-4.3-12.8-4.3
						c-7.9,0-10.9-2.9-11.8-10.6c-0.6-4.8-1.5-8.9-5.3-12.3c-2.6-2.4-2.1-6.2-1.7-9.5c0.4-3.2-0.5-5.6-2.6-8.1
						c-6.4-7.4-6.8-12.8-1.1-20.5c2.4-3.2,4-5.8,2-9.7c-0.9-1.8,0-3.9,0.7-5.8c1.2-3.8,2.4-7.6,3.5-11.4c1.2-4.2,3.5-7.1,8-7.9
						c0.9-0.2,1.8-0.7,2.9-1.1c0.2-2,0.1-4,0.5-5.9c1.2-6.5,5.4-9,11.6-7.1c0.3,0.1,0.6,0.2,0.9,0.4c10,4.9,20.8,7,31.7,8.6
						c6.1,0.9,10.5,3.6,13.8,8.6c5.9,8.9,12,17.6,18.1,26.4c4.8,6.9,8.5,14.3,10,22.7c1.1,6.4,4.3,11.6,8.8,16.4
						c11.9,12.2,23.8,24.3,34.1,37.9c4.6,6.1,9.1,12.3,13.6,18.5c2.4,3.3,4.2,6.8,3.3,11.1c-0.7,3.2,0.5,5.8,2.8,8.1
						c6.7,6.5,12.9,13.5,20.5,19c4.6,3.3,8.8,7.1,14.8,7.8c3.1,0.4,5.3,2.8,7.1,5.2c2.1,2.8,5,4.1,8.2,5.3
						c10.2,3.8,20.7,4.7,31.5,3.6c0.5-0.1,1-0.7,1.9-1.3c-1.6-2.7-4.5-3.6-6.9-5.2c-15-9.7-28.2-21.3-39-35.5
						c-14.2-18.7-23.2-39.5-25.3-63.1c-2.1-23.3,2.6-45.1,13.8-65.5c11.3-20.6,27.3-36.8,47.1-49.4c25.3-16,53-24.4,82.8-26.5
						c32.6-2.4,63.7,3.2,93.4,16.7c24.4,11.1,45.1,27,61.1,48.6c14,18.9,22.6,39.9,24.2,63.5c2,28.8-6.2,54.6-23.2,77.8
						c-7.3,10-16.1,18.7-25.8,26.4c-2.3,1.8-5.3,2.9-6.4,6.6c5.7,3.3,11.4,6.6,17.1,9.8c0.8,0.5,1.9,0.7,2.8,0.9
						c1.5,0.4,4-1.5,3.4-2.7c-3.6-7.1,0.2-13,3.1-18.8c4.9-10.2,10.2-20.2,15.7-30.1c6.4-11.3,11.9-23.1,16.5-35.3
						c2.7-7.2,4.9-14.5,4.5-22.4c-0.2-4.7,0.5-9.3,1.9-13.8c3.4-11.1,6.9-22.2,10.1-33.4c2.1-7.1,6.2-11.6,13.7-12.7
						c6.8-1,12.5-4.4,17.9-8.4c4-3,8-6,12.1-8.9c3.6-2.5,6-2.1,8.7,0.8c2.9,3.3,2.9,8.6,6.1,11.2c2.9,2.3,7.5,2.2,10.5,5.2
						c2.6,2.6,5.3,5.1,7.8,7.8c2,2.3,3.7,5,3.2,8.1c-0.5,3.8,1,6.3,3.9,8.5c1.1,0.8,1.9,1.9,2.8,2.8c4.3,4.3,5.4,9.4,2.5,14.6
						c-2.7,4.8-3,9.2-1.4,14.2c0.7,2.1,0.9,5.2-0.1,6.8c-3.1,4.6-2.7,8.9-1.5,14c1.6,7.3-1.9,12.2-9.1,14.3
						c-3.2,0.9-6.3,1.8-9.1,3.8c-10.1,7.4-12.7,12.3-13.4,26.1c-0.6,12,0,24,0.4,36c0.3,10.3,0.5,20.7,0.4,31c0,5.7-0.3,5.9-5.8,7.5
						c-2.5,0.7-4.1,1.9-5.3,4c-3.3,5.8-6.8,11.5-10,17.3c-5.8,10.2-12.5,19.6-20.5,28.2c-7.7,8.3-16.7,14.2-27.8,16.7
						c-11,2.5-22,5.1-33.1,7.6c-10.1,2.3-20.2,4.1-30.6,4.6c-1.3,0.1-2.7,0.3-3.9,0.7c-1.8,0.5-2.8,1.7-2.7,3.6c0.3,7,0.6,14,0.8,21
						c0.8,26,0.5,52-2.2,77.9c-1.2,11.3-2.6,22.5-5.1,33.6c-1.6,7-1.5,7.1,5.4,10.5c14,7,28.1,13.8,42,20.9
						c7.4,3.8,14.6,7.9,21.8,12.1c4.1,2.4,8.3,4.2,12.9,5.2c6.9,1.4,13.4,4,19.5,7.4c8.7,4.9,17.5,9.7,26.2,14.6
						c3.5,2,7,3.9,10.3,6.1c6.1,4,12.1,4.6,18.8,1.4c18.3-8.8,36.9-7,55.5-1.2c4.1,1.3,7.9,3.4,11.7,5.5c9.7,5.4,13.9,14,15.1,24.5
						c1.1,9.4-0.2,18.6-3.4,27.5c-7.3,20.4-20.1,36.7-36.4,50.4c-5.6,4.7-11.7,8.8-18.2,12.3c-6.8,3.7-13.8,6.5-21.3,8.3
						c-10,2.5-19.6,2.2-29-2.8c-9.5-5-18.4-10.7-27.4-16.5c-12.3-8-24.9-15.5-37.9-22.2c-14.6-7.5-29.6-13.5-45.5-17.5
						c-11.3-2.8-22.7-5.2-33.4-10C1362.8,1799.5,1362,1800,1361.4,1800.1z M972.6,1246.9c3,0.3,4.1,3.1,5.8,4.9
						c2.2,2.3,4.6,3.6,7.8,3.5c0.6,0,1.4-0.4,1.6-0.9c0.2-0.4,0-1.5-0.4-1.7c-4.6-3-8.8-6.9-15-5.7c-1.4-4-3.4-7.2-8.3-7.1
						c-2.1,0.1-3.8,0.4-4.6,2.8c-5.2,14.1-4.9,13.8,5.2,25.2c5.8,6.5,12.7,9.4,21,9.8c3.7,0.2,7.3,0.2,11,0c1.6-0.1,3.3-0.6,4.8-1.2
						c2.1-0.8,2.9-2.6,2.5-4.8c-0.8-4.7-4.4-8.4-9.3-9.1c-2.6-0.4-5.3-0.4-8-0.3c-9.5,0.6-14.3-5.7-18.7-12.6
						c-0.8-1.2-0.1-2.7,1.1-3.4C970.3,1245.5,971.6,1245.7,972.6,1246.9z M1238.4,1827.4c-0.6,0.3-0.8,0.7-0.3,1.2
						c0,0,0.3-0.2,0.4-0.3c0.7-1.1-0.1,0.6-0.3-0.7c-1.5-2.6-3.9-3.4-6.6-3.8c-3-0.4-5.9-0.9-8.8-1.6c-1.3-0.3-2.2-1.6-2-3.1
						c0.2-1.3,1.1-2.4,2.4-2.8c0.6-0.2,1.3-0.3,2-0.3c13.4,0.2,18.7,3.6,23.6,14.6c2.3,5.2,4.4,10.4,6.4,15.7
						c4.4,12,10.8,22.8,18.8,32.8c8.7,10.9,17.2,22,25.8,33.1c5.6,7.1,10,14.9,13.4,23.3c1.2,3.1,2.7,6.1,3.8,9.2
						c1.3,3.8,4,5,7.8,4.5c5.6-0.8,11.3-1.1,16.8-2.4c25.8-5.8,48.6-17.8,68.8-34.8c3.8-3.2,7.2-6.9,10.6-10.5
						c2.1-2.3,2.1-3.7-0.1-6c-10.4-10.5-22.2-18-38-15.9c-3.2,0.4-5.1-2.7-3-5.1c2.4-2.9,2.1-5.3,0.8-8.2c-0.7-1.5-1.1-3.1-1.7-4.7
						c-12-30.4-25.3-60.1-40.3-89.1c-5.3-10.4-10.9-20.6-18.3-29.7c-8.1-10-17.6-18.1-29.7-22.9c-9.6-3.8-19-8.1-28.7-11.5
						c-21.3-7.5-42.8-14.6-64.2-21.8c-8.2-2.8-16.1-6.2-23.9-10.1c-4.4-2.2-6.3-5.3-5.7-10.3c1.1-9.6,1.7-19.2,1.5-28.9
						c-0.1-7.3-0.1-14.6,0-22c0.1-22.6,0.2-45.3,0.4-67.9c0.1-6.6-1.9-12.5-5.7-17.7c-4.3-5.9-9-11.5-13.8-17.1
						c-3.7-4.3-8.5-7.5-13.7-9.8c-3.7-1.6-7.4-3-11.2-4.3c-15.7-5.6-29.1-14.7-40.3-26.9c-7.2-7.9-13.9-16.1-19.5-25.3
						c-3.6-6-7.3-11.9-10.9-17.9c-3.5-5.7-3.5-5.7-10.3-3.8c-0.3,0.1-0.7,0.1-1,0.2c-3,0.9-3.6,2.1-2,5.1c8.2,16,16.9,31.7,26.3,47
						c3.4,5.5,8.4,9.4,14.1,12.4c5.6,3,11.2,5.8,16.9,8.7c11.6,5.8,22.7,12.5,33.2,20.2c9,6.7,14.7,15.2,15.9,26.6
						c0.9,8.3,2.5,16.5,3.1,24.8c1.3,17.9,3,35.9,1.1,53.9c-1,9.6-1.7,19.2-2.7,28.8c-0.7,7-1.6,13.8-3.7,20.6
						c-6.3,20.9-9.1,42.2-6.2,64c3.9,29.3,17.2,53.6,38.4,73.7c7.8,7.4,17.1,12.7,28.1,14c10.2,1.2,20.4,2.5,30.7,3.7
						C1237.3,1828.2,1237.9,1827.6,1238.4,1827.4z M1056.9,1420.6c6.5,11.5,12.8,22.1,20,32.1c14.4,20,32.3,35.3,56.4,42.6
						c13,4,22.3,12.9,29.9,23.8c2.3,3.3,3.8,7.5,6.8,9.7c3,2.2,7.4,2.5,11.2,3.8c35.3,12.1,70.5,24.2,105.8,36.3
						c2.5,0.9,5,1.7,7.6,2.5c1.9,0.6,3-0.3,3.2-2.6c0.1-1,0.1-2,0.1-3c0.8-27.4-0.2-54.6-4.4-81.7c-1.9-12.2-4.3-24.3-7.7-36.1
						c-2.6-9-2.2-7.7-9.9-8.4c-18.7-1.6-37-5.3-54.4-12.3c-6.4-2.6-12.7-3.6-19.4-2.6c-2.3,0.4-4.6,0.5-7,0.7
						c-11.8,1.3-23.2-0.5-34.4-4.4c-4.1-1.4-8.1-3-10.7-6.9c-1.3-2-3.1-3.8-5.6-3.9c-4.4-0.2-7.4-2.8-10.7-5
						c-9.3-6.1-16.9-14-24.8-21.7c-2.9-2.9-3.8-2.8-6.2,0.5c-10.7,14.6-24.7,25.1-40.5,33.4
						C1060.7,1418.3,1059.3,1419.2,1056.9,1420.6z M1560.2,1742.3c-3.3,0.2-4.9,0.2-6.5,0.4c-6.6,0.9-13,2.9-19,5.8
						c-7.6,3.6-14.8,2.7-21.9-1.4c-2.6-1.5-5.2-3-7.8-4.5c-8.1-4.6-16.1-9.3-24.3-13.9c-8.1-4.6-16.5-8.7-25.8-10.4
						c-4-0.8-7.6-2.4-11.1-4.4c-20.7-12.2-42.1-22.8-63.8-33.1c-3.5-1.7-7.2-4.3-9.9,1.3c-0.3,0.7-1.7,1.3-2.5,1.3
						c-3.8-0.3-6,2.3-8.7,4.2c-5.5,3.7-11,7.6-16.6,11.1c-12.3,7.6-25.2,13.5-39.7,15.6c-0.5,0.1-0.9,0.7-1.5,1.3
						c0.6,0.8,1.1,1.7,1.8,2.2c15.8,9.7,26.9,23.7,35.6,39.7c4.4,8.2,8.7,16.5,12.8,24.8c1.5,3.1,3.6,5.3,6.7,7
						c9.1,4.9,18.7,8.6,28.8,10.9c22.5,5.1,44,12.8,64.3,23.9c10.8,5.9,21.4,12.2,31.7,18.9c1.8,1.2,3.4,3.3,6.5,2.2
						c2.4-7.7,4.7-15.7,8.1-23.3c3.5-7.6,7.2-15.1,11.7-22c4.7-7.2,9.6-14.4,14.8-21.4c4.9-6.7,10.4-13,16.5-18.7
						C1546.6,1754,1552.9,1748.7,1560.2,1742.3z M1503.7,1450.8c-1.7-0.5-2.3-0.8-3-0.8c-27-1.7-52.5-8.4-75.6-23.1
						c-0.3-0.2-0.6-0.3-0.9-0.5c-1.7-0.9-3.2-0.6-4.6,0.6c-2.4,2-3.8,4.4-4.3,7.6c-1,6.7-0.6,13.3,0.9,19.8c0.4,1.9,0.7,3.9,0.8,5.9
						c0,1.5-1.4,2.4-2.6,2.7c-0.8,0.2-2-0.4-2.6-1c-0.9-1-1.5-2.2-1.9-3.4c-1.6-6.1-2.7-12.3-2.5-18.7c0.1-3.6,2.5-7.7,0.3-10.7
						c-2-2.7-6-4-9.1-5.9c-2.3-1.4-4.7-2.5-6.9-4c-5.3-3.6-10-3.3-15.7-0.2c-18.9,10.4-39.1,16.6-60.5,19.2
						c-1.6,0.2-3.3,0.5-4.9,0.9c-2.4,0.6-3.1,1.7-2.6,4.4c0.2,1,0.5,1.9,0.7,2.9c5.9,26.8,9.1,53.8,9.3,81.2c0.1,10.3,0,20.7,0,31
						c0,1.5-0.5,3.4,1.7,4.2c0.8-0.4,1.8-0.7,2.6-1.2c16-11.9,32-23.9,48.2-35.7c3.5-2.5,4.2-5.3,3.8-9.4c-1.3-14-3.4-27.7-6.7-41.4
						c-0.4-1.6-0.9-3.2-1.2-4.8c-0.3-1.8,0.4-3.3,2.2-4c1.9-0.7,3.3,0.2,4.1,1.8c0.6,1.1,1,2.5,1.3,3.8c1.3,5.5,2.7,11,3.7,16.6
						c1.5,9.2,2.7,18.4,4,27.7c0.3,2.3,1.4,3.7,3.8,3.6c1.3,0,2.7-0.1,4-0.2c21.9-2.3,43.3-7.3,64.5-12.9c8-2.1,14.4-6.5,20.2-12.2
						C1486.7,1482,1495,1466.9,1503.7,1450.8z M1290.4,1432.9c4.3-0.3,8.6-0.6,12.9-0.8c30.7-1.5,58.7-10.9,84.1-28.2
						c17.4-11.8,31.3-26.8,41.2-45.5c8.9-16.8,13.3-34.8,12.4-53.9c-1.1-24-9.4-45.5-23.9-64.5c-15.7-20.6-35.8-35.7-59.3-46.1
						c-31.1-13.8-63.6-18.6-97.5-14.4c-28,3.5-53.7,12.6-76.7,29c-16,11.3-29.1,25.4-38.4,42.7c-10.6,19.6-15.1,40.5-12.6,62.6
						c2.5,21.7,10.9,41,24.2,58.3c12.2,15.8,27.3,28.2,44.6,37.9C1229,1425.6,1258.7,1433,1290.4,1432.9z M1514.5,1242.6
						c-3.8,1.3-6.7,4.2-9.8,6.6c-6.5,4.8-13.2,9.1-21.3,10.4c-5,0.8-7.7,3.4-9.1,7.9c-2.9,9.5-5.9,19-8.8,28.6
						c-2.6,8.7-3.6,17.5-2.5,26.6c0.7,5.9,0.6,11.9,0.6,17.9c0,2.9-1.3,4.1-4.6,3.5c-2.5-0.4-3.9-0.2-4.7,2
						c-5.1,13.4-12.7,25.6-19.4,38.2c-4.2,7.9-8.1,16-11.8,24.2c-2.2,4.8-1.7,5.9,2.4,9.4c4.3,3.7,9.1,6.7,14.2,9.2
						c15.4,7.5,31.6,12.2,48.5,14.5c6.9,0.9,13.9,1.1,20.9,0.4c5.7-0.5,6.6-1.2,6.5-6.5c-0.2-19-0.7-37.9-0.9-56.9
						c0-3-2.6-4.7-2.7-7.3c-0.2-3.2,3.9-4.5,3.9-7.8c0-0.7,0.1-1.3,0-2c0-3.6,1.7-6.4,3.8-9c2.1-2.6,4.3-5.1,6.4-7.6
						c-9.8-8-18.4-16.5-19.1-30.1c0-0.3-0.1-0.8-0.4-0.9c-4.6-2.7-5.2-8.3-8.8-11.9c-7.8-7.6-6.3-18,2.9-23.2
						c2.6-1.5,5.5-2.2,8.3-3.3c3.1-1.1,4.6-3.3,4.9-7.6c-3.5,2.1-6.1,3.9-8.9,5.4c-1.7,1-3.5,1.8-5.4,2.5c-1.4,0.5-2.8-0.2-3.5-1.3
						c-0.7-1.1-0.7-2.7,0.4-3.7c1.8-1.5,3.7-2.8,5.6-4.1c4.5-2.9,8.8-6.1,12.2-10.1C1518.8,1252.1,1518.8,1249.4,1514.5,1242.6z
						 M986.3,1327.3c2.4,1.4,3.9,2.9,5.8,3.4c8.3,2.4,7.6,12.2,13.6,16.5c1.1,0.8,1.5,2.9,1.9,4.5c3.8,18.6,8.8,36.9,14.2,55.1
						c0.7,2.2,1.5,4.4,2.1,6.7c1.2,4.7,3.3,5.2,7.2,5.2c4.7,0.1,9.3-0.6,13.8-2c19.6-6.2,35.9-17.3,49.1-32.9c2.8-3.3,5.1-7,7-10.9
						c2.1-4.3,2-8.2-1-12.1c-4.3-5.5-8.3-11.3-12.5-16.8c-10.3-13.6-22.3-25.6-34.1-37.9c-5-5.2-8.8-10.7-9.9-18
						c-1.4-8.7-5.4-16.3-10.5-23.5c-5-7-10.3-14-14.8-21.4c-3.4-5.6-7.6-8.6-14.2-9.3c-8.9-1-17.7-3.2-26.1-6.6
						c-2.1-0.8-4.4-2.8-6.2-0.3c-1.4,2-0.1,4.5,0.8,6.6c1.1,2.6,3.2,4.2,5.6,5.5c2.9,1.6,5.9,3.1,8.9,4.6c2.7,1.4,5.6,2.7,7.2,5.2
						c3,4.5,6.5,8.1,11,11.1c3.1,2.1,4.7,5.5,5.8,9.1c1.2,3.7,1.1,7.3-1.6,10.4c-2.1,2.3-3.3,4.8-3.6,8c-0.2,3.1-1.8,5.6-4,7.9
						c-3.3,3.4-2.3,8.9-5.8,12.4c-0.4,0.4,0.1,2,0.5,2.8c2.4,4.4,0.4,7.8-2.5,10.8C992,1323.4,989.4,1325,986.3,1327.3z
						 M1609.3,1778c0-6.2-0.9-12-3.9-17.4c-3.4-6-6.5-7.3-13.2-5.5c-6.9,1.9-12.8,5.6-18.2,10.1c-23.3,19.4-40,43.4-50,72
						c-1.6,4.7-2.3,9.7-3.2,14.6c-0.4,1.9-0.4,4-0.3,6c0.3,4.4,2.1,6,6.4,5.5c7.3-0.9,14.4-2.6,21.1-5.8
						c25.6-12.3,44.3-31.3,55.9-57.3C1606.9,1793,1608.5,1785.5,1609.3,1778z M1296.4,1591.9c-0.1,0-0.2,0-0.3,0
						c0.2-1.7,0.4-3.3,0.5-5c0.5-6.5,0.5-6.7-5.2-8.8c-2.2-0.8-4.4-1.5-6.6-2.2c-32.1-11-64.1-22.1-96.3-33c-4-1.4-7.9-3.5-12.4-3.4
						c-2.7,4.4,0.1,9-0.4,13.4c-0.1,1,0.2,2,0.1,3c-1.2,6.2,2.3,8.6,7.5,10.7c34.3,13.7,68.5,27.7,102.7,41.5
						c1.5,0.6,3.1,1.3,4.7,1.8c1.9,0.6,3.4,0,3.7-2.1C1295.1,1602.5,1295.7,1597.2,1296.4,1591.9z M1175.5,1606
						c-1.2,8.5-1.2,15.7-0.8,23c0.1,2.2,1.3,3.7,3.2,4.6c2.1,0.9,4.3,1.8,6.4,2.7c26.9,11.3,53.9,22.7,80.9,33.9
						c4.5,1.8,8.6,4.9,13.8,4.6c3-4.2,3.6-9.2,5.1-13.9c1-3.2,1.8-6.4,2.4-9.7c0.3-1.3-0.2-2.6-1.7-3.2c-2.8-1.1-5.5-2.4-8.3-3.4
						c-25.1-9.6-50.3-19.2-75.4-28.7C1193,1612.7,1185,1609.6,1175.5,1606z M1175.4,1584.3c0,3.8,0,7.1,0,10.5
						c0,2.3,1.2,3.8,3.1,4.6c2.5,1,5,1.9,7.5,2.8c29.8,11.4,59.7,22.8,89.5,34.2c15.6,6,13.3,6.8,16.3-10.2
						c1.3-7.3,1.9-7.4-6.4-10.8c-32.4-13.1-64.7-26.3-97.1-39.4c-3.6-1.5-7.1-3.7-11.2-3.6
						C1173.9,1576.3,1176.3,1580.8,1175.4,1584.3z M1275.5,1683.2c-2.2-2.7-5.6-3.3-8.6-4.6c-26.1-11-52.2-21.9-78.3-32.7
						c-3.9-1.6-7.6-4.1-12.1-4.2c-3.6,3.9-1.8,8.9-2.2,13.3c-1.1,13.7-0.9,13.8,11.7,18.9c18.5,7.6,37.5,13.7,56.5,19.8
						c4.1,1.3,8.2,2.8,12.3,4c4,1.2,8.1,5,12.1,3.1c3.8-1.9,4.7-7,6.6-10.9C1274.5,1687.8,1275.9,1685.9,1275.5,1683.2z
						 M1315.4,1607.7c1.9,0.6,3.1-0.8,4.4-1.7c5.7-3.9,11.4-8,17.1-12c11.4-8,22.7-16.1,34.3-23.8c4.3-2.9,6.5-5.9,5.9-11.4
						c-0.8-7.2-0.8-14.6-1.2-21.9c-0.1-1.6,0.2-3.4-2.8-4.1c-17.4,13-35.2,26.2-53,39.5c-2.1,1.5-2.7,3.6-2.9,6
						c-0.9,9.2-1.9,18.5-2.7,27.7C1314.5,1606.6,1315.1,1607.2,1315.4,1607.7z M1311.6,1543.9c-0.1-30.8-2.3-59.3-7.9-87.5
						c-0.9-4.6-2-9.1-3.3-13.6c-0.7-2.6-4.9-3.7-7.5-2.2c-1.1,0.6-1.2,1.6-1,2.6c0.4,2,1,3.9,1.5,5.8c5.2,19.7,8.4,39.7,10.2,59.9
						c3.4,38,2.2,75.8-3.8,113.5c-4.3,27-10.5,53.5-23.4,78c-0.3,0.6-0.6,1.2-0.8,1.8c-0.9,2.2-0.4,3,2.5,4.3
						c3.5,1.5,4.6,1.4,5.6-1.3c1.5-3.7,2.9-7.5,4.1-11.2C1304.2,1644.6,1310.7,1593.6,1311.6,1543.9z M1375.4,1614.4
						c-4.4,0.8-7,3-9.8,4.7c-15.2,9-30.3,18.1-45.4,27.2c-4.6,2.7-10.2,4.8-13.2,8.7c-3,4-3.4,9.9-4.6,15.1
						c-0.6,2.4-2.1,4.9-0.3,7.7c1-0.2,2-0.2,2.8-0.7c21.2-11.1,42.5-22.3,63.7-33.4c0.6-0.3,1.1-0.7,1.7-1c1.9-1,3.1-2.5,3.2-4.7
						C1373.8,1630.4,1375.9,1622.9,1375.4,1614.4z M1370.3,1657.6c0.1-2.7,1-4.2-0.1-5.1c-1.1-0.9-2.5-0.2-3.7,0.4
						c-19.1,10-38.2,20-57.3,30.1c-13.2,6.9-13.2,6.9-17.3,20.8c-1,3.4-0.2,4.5,3,4.1c9.2-1.1,18.3-2.9,26.9-6.7
						c12.2-5.4,23.1-13,34.1-20.5C1364.7,1674.7,1370,1667,1370.3,1657.6z M1309.4,1643.1c3.6-0.4,5.7-2.2,7.9-3.6
						c16.9-10,33.7-20.1,50.6-30.2c1.7-1,3.4-2.2,5.1-3.1c1.9-1,3.1-2.6,3.2-4.7c0.3-7.6,0.6-15.3,0.9-22.9c0-1.4-1.6-2.3-2.8-1.6
						c-1.7,1-3.4,2.1-5,3.2c-16.9,11.8-33.8,23.6-50.8,35.5c-1.1,0.8-2.2,1.5-3.3,2.3c-1.7,1.2-3,2.7-3.1,4.9
						C1311.6,1629.4,1309.1,1635.8,1309.4,1643.1z M1505.2,1297.2c5.6-0.8,10.8-2.9,16.3-4.1c8-1.8,12.8-6.2,15-13.9
						c0.2-0.6,0.6-1.2,0.8-1.8c4-9.7,3.7-10.9-4.1-17.9c-0.7-0.7-1.5-1.3-2.3-1.9c-1.7-1.4-3.6-1.6-5.5-0.4
						c-1.6,1.1-3.1,2.4-4.5,3.7c-2,1.9-2.6,3.7,0.4,5.4c1.3,0.7,1.5,2.3,1,3.5c-2.4,5.8-4.2,12-11.9,13.1c-2.2,0.3-4.3,1.7-6.3,2.7
						c-2.2,1.1-3.4,3.1-3.8,5.5C1499.7,1294.2,1502.1,1297.2,1505.2,1297.2z M977,1292.1c0-0.1,0-0.1,0-0.2c4.3,0,8.6,0.1,13,0
						c2.7-0.1,5.3-0.7,7.2-2.8c0.4-0.4,0.7-1.2,0.7-1.8c-0.1-0.9-0.4-2-1.7-2.1c-5-0.3-9.9-0.7-14.9-1c-7.6-0.5-14.2-3.2-19.3-9
						c-1.5-1.7-3.1-3.4-4.9-5c-1.5-1.3-3.1-1-4.3,0.4c-3.3,3.8-4.2,8-1.7,10.8c5.6,6.2,11.2,12.6,21,10.7
						C973.6,1291.8,975.3,1292.1,977,1292.1z M1415,1938.5c-2.3-3.6-4.7-7.5-7.2-11.4c-1.1-1.7-2.8-1.7-4.3-0.7
						c-4.5,2.8-8.9,5.7-13.4,8.7c-1.1,0.7-2,1.9-1.3,3.3c2.3,4.3,3.8,9.2,7.4,12.8c4.9-0.3,8.2-3.9,12-6.3
						C1410.7,1943.3,1413.5,1942,1415,1938.5z M1509.1,1305.2c3.5,2.8,3.5,2.9,5.8,2.6c4.9-0.7,9.7-1.9,14.7-1.6
						c9.5,0.6,15.4-4.4,19.5-12.4c2.5-5,2.4-6.3-1.6-10.4c-2.3-2.4-4.1-2.3-5.2,0.7c-3.1,9.1-9.6,13.8-18.7,15.8
						c-1.6,0.3-3.2,1-4.7,1.5C1515.7,1302.6,1511.8,1302.4,1509.1,1305.2z M1517.8,1831.4c2.5-5.3,5-10.6,7.5-15.9
						c3-6.4,3-6.4-3-9.7c-6.1-3.2-6.3-3.2-9.9,2.9c-0.8,1.4-1.7,2.8-2.4,4.3C1503.5,1825.9,1501.4,1824.6,1517.8,1831.4z
						 M1512.9,1859.5c0.4-4.7,0.7-9,1.2-13.2c1-7.3,1.1-7.3-5.1-10.6c-1.7-0.9-3.5-1.8-5.3-2.7c-1.5-0.7-2.8,0-3.2,1.2
						c-1.5,4.7-2.8,9.5-4,14.3c-0.3,1.3,0.1,2.7,1.3,3.5C1502.5,1855,1506.9,1858.5,1512.9,1859.5z M1421.7,1933.3
						c0.6-0.2,1.4-0.2,1.8-0.6c3.5-3.5,6.9-7,10.2-10.6c1.5-1.6,1.6-3.5,0.4-5.4c-0.5-0.8-0.8-1.8-1.2-2.7c-5.2-10-4.5-9.8-12.2-1.9
						c-2.7,2.8-7.7,4.8-7.4,8.6c0.2,3.5,3.6,6.8,5.6,10.2c0.3,0.6,0.7,1.2,1.2,1.6C1420.5,1932.8,1421.1,1933,1421.7,1933.3z
						 M1365.2,1964.8c-2.4-4.6-4.5-8.7-6.7-12.8c-0.7-1.2-1.9-1.8-3.4-1.4c-3.5,1-7,2-10.6,2.9c-7.4,1.9-7.4,1.9-4.5,9
						c0.4,0.9,0.9,1.8,1.2,2.7c0.9,2.6,2.6,3.8,5.3,3.5C1352.4,1968.1,1358.5,1968.1,1365.2,1964.8z M1531.6,1801.8
						c0.6-0.5,1.6-0.9,2.1-1.6c3.1-4.3,6.1-8.7,9.2-13c3.5-4.7,4.2-5.1-2.3-8.6c-5.1-2.8-5.3-2.8-9,1.8c-3.1,3.9-6.1,7.9-8.9,11.9
						c-2.2,3.1-1.8,4.4,1.5,6.3C1526.4,1799.8,1528.5,1801.6,1531.6,1801.8z M1381.2,1940c-5.2,2.3-9.2,4-13.1,5.8
						c-2.5,1.2-3.2,2.5-2.1,4.6c7.4,14,4.7,13.9,19.4,7.5c0.6-0.3,1.3-0.5,1.8-0.9c0.9-0.9,2-1.8,1.2-3.4
						C1386.1,1949.3,1383.8,1945,1381.2,1940z M1567.5,1759.9c-0.1-0.6-0.1-1-0.3-1.2c-2.2-2.1-4.5-3.9-7.4-4.6
						c-2.5-0.6-4.2,1.5-5.9,3c-3.9,3.5-7.7,7.2-11.4,10.9c-1,1-1,2.4,0.3,3.4c6.9,5.2,8.3,5.1,14.7-1.2c2.8-2.8,5.8-5.4,8.6-8.2
						C1566.8,1761.5,1567.1,1760.5,1567.5,1759.9z M1528.9,1324.8c5.8-1.6,13-3.8,18.3-9.8c0.6-0.7,0.7-1.8,0.9-2.7
						c0.4-1.7-1.3-3.3-2.9-2.6c-6.4,3.2-13.1,4.1-20.2,3.9c-1.6,0-3.3,0.2-4.9,0.5c-1,0.1-2,0.3-2.8,0.8c-1.6,0.8-2.6,2.3-2.5,4
						c0.1,1.1,1.1,2.4,2.1,3.1C1520,1324.1,1523.6,1324.5,1528.9,1324.8z M989.8,1300.7c-1-1.9-2.8-1.1-4.3-1.2
						c-8.8-0.7-17.8,1.5-26.6-1c-0.3-0.1-1.2,0.6-1.3,1.1c-0.2,0.5,0,1.3,0.3,1.8c0.3,0.6,0.7,1.2,1.3,1.5
						C969.2,1307.7,980.9,1310.6,989.8,1300.7z M973.6,1314.3c-3.3-0.3-5.2-0.6-7.2-0.7c-1.7-0.1-2.7,1.3-2.5,3.4
						c0.4,2.7,1.7,4.4,4.2,4.6c6.7,0.5,13.1-0.6,19.1-3.8c0.6-0.3,1.1-0.8,1.4-1.3c0.6-0.8,1.1-1.7,0.5-2.7
						c-0.5-0.9-1.4-1.6-2.4-1.3C982.1,1314,977.3,1314.8,973.6,1314.3z M1524.6,1332.3c0.3,1,0.2,1.9,0.6,2.2
						c4.9,4.1,14.2,4.7,19.3,1.5c1.5-0.9,2.2-2.4,2.3-4.1c0.3-3.6-2.1-5.5-5.4-3.9C1536.1,1330.5,1530.8,1332.9,1524.6,1332.3z
						 M1567.6,1748.9c1.3,2.4,3.7,3.5,5.9,4.7c0.8,0.4,2,0.7,2.8,0.4c3-1.3,5.9-2.8,8.8-4.2c0.8-0.4,1.7-1,1-2.2
						C1577.9,1743,1574.8,1743.1,1567.6,1748.9z M1333.6,1966.3c-1.2-3.2-1.9-6.8-4.4-9.5c-1.2-1.3-3.1-0.9-4.6-0.4
						c-1.5,0.5-1.4,2-1,3.3c0.7,1.8,1.2,3.8,2.3,5.3c1.4,1.9,3.6,2.8,6,2.5C1332.5,1967.5,1332.9,1966.8,1333.6,1966.3z"/>
					<path d="M1280.2,1214.7c30.2,0.6,60.2,3.7,89.3,13.4c10.1,3.4,19.9,7.6,28.9,13.4c9.8,6.3,17.2,14.3,21.6,25.4
						c4.6,11.5,8.7,23.1,9.7,35.5c2.6,29.4-6.2,55.3-25,77.7c-17.6,21-40.2,34.7-66.3,42.4c-46.1,13.6-90.2,8.5-132.3-14.5
						c-17.2-9.4-31.7-22-43.2-37.9c-16.7-23-24.4-48.6-21.1-77.1c1.6-13.7,6.1-26.6,13-38.5c4.6-8,11.9-13.4,19.7-18
						c11.9-6.9,24.9-11.1,38.2-14.4C1234.7,1216.7,1257.3,1215,1280.2,1214.7z M1282,1422.5c23.3-0.1,29.9-0.5,46.8-4.7
						c26.4-6.6,49.9-18.9,68-39.6c27.4-31.2,33-66.4,18.3-105.2c-4.9-12.9-13.4-22-25.3-28.4c-10-5.4-20.6-9.4-31.5-12.5
						c-29.8-8.3-60.2-11-91-9.9c-19.4,0.7-38.5,3.1-57.3,8c-13.6,3.5-26.6,8.5-38.4,16.4c-4.5,3-8.3,6.7-10.9,11.5
						c-12.5,22.9-16.2,47-9.3,72.4c6.4,23.7,20,42.7,38.8,58C1219,1411.8,1252.4,1422.2,1282,1422.5z"/>
					<path d="M1190.9,1257.8c0.6,0,1.6,0.1,2.6,0.2c7.5,1,10.5,5.6,7.5,12.7c-3.2,7.8-5.1,15.8-6.1,24.1c-3,23.3,0,45.7,10.3,67
						c6.2,12.8,14.7,23.7,27.1,31.2c1.7,1,3.6,1.9,4.3,4c0.3,0.9,0.3,2,0.1,2.8c-0.4,1.4-1.6,2.2-3,2.1c-1.3-0.1-2.6-0.3-3.8-0.8
						c-18-6.8-34-16.8-46.4-31.8c-24.6-29.9-28.7-63.3-16.1-99.3c1.3-3.7,3.6-6.2,7.1-7.8
						C1180.4,1259.3,1185.6,1257.8,1190.9,1257.8z M1205.2,1379.9c0.9-2.7-0.1-3.7-0.8-4.8c-19.3-32.1-22.3-66.2-12.2-101.9
						c0.4-1.3,0.9-2.5,1.3-3.8c0.9-3.2-0.8-5.2-4.2-4.5c-3.2,0.6-6.4,1.8-9.6,2.7c-3.5,1-5.5,3.3-6.6,6.8c-2,6-3.6,12.1-4.5,18.4
						C1163.8,1328.6,1176.2,1357.3,1205.2,1379.9z"/>
					<path d="M1394.7,1355.7c-0.4,1.5-0.6,3.9-1.5,5.9c-4.6,10-11.7,17.6-21.6,22.3c-1.8,0.8-3.7,1.4-5.7,1.7
						c-5.5,0.7-9.8-3.1-9.9-8.5c-0.1-2.7,0.8-5.2,1.9-7.7c4.3-9.3,11.1-16.4,20-21.3c2.3-1.3,4.8-2.1,7.5-2.2
						C1391.2,1345.7,1394.8,1349.1,1394.7,1355.7z M1387.3,1355c-0.7-1.6-1.9-2.1-3.2-1.6c-10.3,3.9-17,11.2-20.5,21.6
						c-0.3,0.9-0.3,2.2,0.8,2.6c0.8,0.3,2,0.5,2.8,0.2c9.7-4.1,16.2-11.3,20.1-21C1387.5,1356.3,1387.3,1355.5,1387.3,1355z"/>
					<path d="M1382.2,1321.8c0.3-8.2,7.5-14.9,15.8-14.5c8.5,0.4,14.6,7.2,14.2,15.8c-0.4,8.4-7.2,14.1-15,14.2
						C1389,1337.4,1382,1329.9,1382.2,1321.8z M1397.3,1314.3c-4,0-7.5,3.4-7.7,7.4c-0.2,4.6,3.2,8.3,7.8,8.3c4,0,7.6-3.3,7.9-7.3
						C1405.5,1318.5,1401.6,1314.3,1397.3,1314.3z"/>
				</g>
				<g id="Слой_6">
					<g>
						<path class="st1" d="M1737.3,567.6c-2.1-1.1-4.4,0.5-5.6,4.2c-2.4,7.3-4.6,14.8-6.9,22.1c-58.5,188.3-116.9,376.6-175.4,564.8
							c-11.2,35.9-22.3,71.8-33.5,107.7c-0.6,2-0.4,4.8-3.9,5.3c-0.1-1.8-0.2-3.4-0.3-5.1c-0.7-32.3-1.4-64.5-2.2-96.8
							c-1.1-44.4-2.3-88.7-3.4-133.1c-1.2-49.7-2.3-99.5-3.5-149.2c-0.8-34.9-1.7-69.9-2.7-104.8c-0.1-2.7-0.2-5.4-0.8-8
							c-0.2-1.1-1.5-2.1-3.1-2.1c-1.6,0-2.7,1-3,2.2c-0.5,1.9-0.7,3.9-0.7,5.9c0.2,9.4,0.6,18.8,0.8,28.2c1,44.4,1.8,88.7,2.9,133.1
							c1,41,2.2,82,3.2,123c1.2,48.1,2.3,96.1,3.4,144.2c0.2,11.1,0,22.1,0,33.2c-2.1-17.3-3.7-34.6-5.1-51.9
							c-1.7-20.1-3.2-40.2-4.8-60.3c-2.5-30.5-5-61-7.4-91.4c-1.6-19.4-3-38.9-4.6-58.3c-2.4-28.8-4.8-57.6-7.2-86.4
							c-2.3-29.1-4.6-58.3-6.8-87.4c-0.7-8.4-1.3-16.8-2-25.1c-0.2-2.7-0.6-5.4-1.4-7.9c-0.6-1.8-2.7-1.7-4.4-1.5
							c-1.5,0.2-2.4,1.1-2.4,2.7c0,1,0,2,0.1,3c1.8,23.1,3.6,46.2,5.4,69.4c2.3,28.8,4.8,57.6,7.1,86.4c2.3,28.8,4.5,57.6,6.8,86.4
							c2.3,28.8,4.8,57.6,7.2,86.4c2.6,31.8,5.2,63.6,7.7,95.5c0.2,3,1,5.9-0.2,9.6c-3.3-3.2-3.8-7.4-5.1-10.9
							c-47.2-129.7-94.3-259.5-141.4-389.2c-61.6-169.5-123.3-339-184.9-508.5c-0.8-2.2-1.5-4.5-2.4-6.6c-1.5-3.7-3.5-5-5.8-3.9
							c-2.1,1-2.6,2.9-1.5,6.1c0.6,1.9,1.4,3.8,2.1,5.7c112.9,310.6,225.7,621.3,338.7,931.9c3.1,8.6,5.3,17.3,5.5,26.5
							c0.1,5.7,0.9,11.4,1.7,17.1c0.2,1.4,0.8,2.5,1.5,3.2c0.7-0.8,1.5-1.4,2.2-2c2.3-1.7,4.9-2.9,7.4-4.1c1.2-0.6,2.4-1.1,3.6-1.8
							c1.3-0.7,1.9-1.1,2.8-2.1c2.1-2.3,3.2-5.4,4.6-8.2c0.8-1.6,1.7-3,2.8-4.3c0.1-0.5,0.3-0.9,0.7-1.3c0.7-0.7,1.5-1.3,2.4-1.6
							c0.3-0.3,0.7-0.5,1-0.7c0.2-0.1,0.4-0.2,0.6-0.3c11.4-36.6,22.8-73.3,34.1-110c58.7-188.9,117.3-377.8,176-566.8
							c0.6-1.9,1.3-3.8,1.8-5.8C1739.9,570.5,1739.3,568.7,1737.3,567.6z"/>
						<path class="st1" d="M1081.3,1834.7c-3.7-29-7.5-58-11.2-87c-3.7-29-7.2-58-10.9-87c-3.7-29-7.5-58-11.2-87
							c-3.7-29-7.2-58-10.9-87c-4.3-34-8.8-68-13.2-102c-4.3-34-8.5-68-12.8-102c-0.2-1.7-0.6-3.5-1.1-5.2c-0.5,1.1-1.2,2-2.1,2.9
							c-0.9,2.3-1.9,4.6-2.9,6.8c-1.9,4.1-3.6,8.3-5.5,12.4c-0.8,1.8-1.5,3.7-2,5.6c-0.5,2-0.6,3.9-0.7,6c0,2.6-0.5,5.3-1.5,7.8
							c0.3,9.4,0.4,18.8,0.3,28.2c-0.7,54.8-1.3,109.6-1.9,164.4c-0.4,32.6-0.6,65.2-1,97.8c-0.6,56.1-1.2,112.3-1.8,168.4
							c0,2.3,0.1,4.7,0.5,7c0.2,1.3,1.5,2.2,3,2.1c1.4-0.1,2.8-0.6,3.1-2.1c0.5-2.6,0.8-5.3,0.9-8c0.3-14.1,0.5-28.2,0.6-42.3
							c0.8-77,1.7-153.9,2.5-230.9c0.1-5.7,0.3-11.3,0.5-17c1.4,12.4,2.4,24.8,3,37.2c2.1,42.6,4.1,85.3,6.1,127.9
							c2.2,46.7,4.3,93.3,6.5,140c0,1,0,2,0.1,3c0.4,3.8,2.1,5.9,4.4,5.6c2.1-0.3,3.3-2.2,3.3-5.4c0-2.4-0.1-4.7-0.2-7.1
							c-1.4-29.5-2.8-59.1-4.2-88.6c-0.7-14.8-1.4-29.5-2.1-44.3c-1.8-35.6-3.5-71.2-5.3-106.7c-1.9-38.6-3.7-77.2-5.5-115.8
							c-0.2-4.3,0-8.5,0-12.8c0.1,8.5,2.7,16.6,3.3,24.9c1.4,19.1,3.2,38.2,4.9,57.3c2.4,27.1,4.8,54.2,7.2,81.3
							c2.3,26.1,4.5,52.2,6.8,78.3c2.4,27.1,4.9,54.2,7.3,81.3c2.2,24.4,4.2,48.9,6.3,73.3c0.1,1,0.2,2,0.4,3
							c0.5,2.1,1.4,3.8,3.9,3.9c2,0.1,3.5-1.6,3.5-4c0-3.4-0.3-6.7-0.5-10.1c-0.5-5.7-1-11.4-1.5-17.1c-1.5-17.4-3-34.8-4.6-52.2
							c-2.4-26.4-4.8-52.9-7.1-79.3c-2.3-26.8-4.5-53.6-6.9-80.4c-3-33.8-6.1-67.6-9.1-101.4c-2.7-30.1-5.3-60.3-7.9-90.4
							c-0.2-2.3-0.4-4.7-0.3-7c0.1-1.9-1.1-4.1,1.1-5.6c0.9,6.3,1.9,12.6,2.7,18.9c1.7,13.3,3.3,26.7,5,40c3,24,6.1,48,9.2,72
							c3,23.3,5.9,46.7,8.9,70c3.1,24.3,6.2,48.7,9.3,73c3,23.3,6,46.7,8.9,70c3.1,24,6.1,48,9.2,72c2.2,17,4.2,34,6.4,51
							c0.2,1.6,0.8,3.3,1.5,4.8c0.8,1.7,2.4,2.2,4.2,1.7c1.6-0.4,2.2-1.8,2.1-3.1C1082,1842.1,1081.8,1838.4,1081.3,1834.7z
							 M1012.6,1365.4l-0.2,0v-4.6c0.1,0,0.2,0,0.2,0V1365.4z"/>
						<path class="st1" d="M983.7,1256c0.1,0,0.2,0.1,0.3,0.1c2.3,0.4,4.3,0.6,6.6,0.9c1.4,0.2,2.7,0.4,4,0.7c0-0.1,0-0.2,0-0.3
							c0.2-3.3,0-38.7-0.2-42.1c-1.1-17.4-2.2-34.9-3.3-52.3c-1.6-25.5-3.1-51-4.7-76.5c-1.7-26.8-3.5-53.7-5.2-80.5
							c-1.7-26.8-3.2-53.7-4.8-80.5c-0.4-6.7-1-13.4-1.5-20.1c-0.2-2.3-2-2.9-4.4-1.7c-2.9,1.5-3.2,3.9-3,6.8
							c1.4,21.1,2.6,42.3,4,63.4c2.4,37.6,4.8,75.1,7.2,112.7c2,30.9,3.9,61.7,5.7,92.6c0.2,3.1,0,6.2,0,10c-1-1.1-1.6-1.5-1.8-2
							c-0.6-1.2-1-2.5-1.5-3.7c-4.2-11.8-6.5-23.9-8.1-36.3c-4.1-30.6-8.5-61.2-12.9-91.8c-4.5-31.9-9.1-63.9-13.6-95.8
							c-1.5-10.6-3-21.3-4.5-31.9c-0.4-2.7-0.9-5.3-1.5-7.9c-0.5-2.3-2.7-3.9-4.3-3.3c-2.1,0.8-3.1,2.5-2.9,4.7
							c0.1,1.3,0.4,2.7,0.6,4c2.8,19.6,5.6,39.3,8.4,58.9c5.3,37.6,10.7,75.2,16,112.8c0.4,2.5,1.2,5.2-0.1,7.9
							c-2.5-2.7-2.9-6-3.9-9.1c-17.3-56.2-34.5-112.4-51.8-168.6c-0.8-2.6-1.6-5.2-2.6-7.6c-0.7-1.8-4.3-2.8-6.2-1.8
							c-1.9,1-1.3,2.8-0.9,4.4c0.6,2.3,1.4,4.5,2.1,6.7c23.2,75.4,46.3,150.9,69.7,226.3c4.5,14.6,5.8,29.5,8.4,46.2
							c-4.8-3.4-6.4-6.8-8.5-9.7c-86.7-121.9-173.4-243.7-260.1-365.6c-29.4-41.4-58.9-82.7-88.3-124c-1.7-2.5-3.6-4.8-5.6-7.1
							c-0.9-1-2.5-1.2-3.7-0.4c-0.8,0.5-1.5,1.4-1.8,2.3c-0.2,0.9-0.1,2.1,0.4,2.8c1.6,2.6,3.3,5.1,5,7.6
							c112,157.5,224.1,314.9,336.1,472.4c9.2,13,18.9,52.1,27.5,70.3C976.9,1252.4,980.1,1254.6,983.7,1256z"/>
						<path class="st1" d="M1666.3,1742.5c-0.7-2.9-1.7-5.8-2.7-8.6c-44.4-127.8-88.8-255.7-133.2-383.5c-0.8-2.2-1.4-4.4-2.1-6.7
							c-0.1,0-0.2-0.1-0.4-0.1c-1.9-0.5-3.6-1.2-5.2-2.3c-3.2-2.1-5.9-4.8-8.3-7.7c-4.3-5.2-7-11.5-6.9-18.3
							c-0.2-0.2-0.4-0.3-0.6-0.5c-0.5-0.4-1-0.9-1.4-1.4c-0.5-0.6-1-1.3-1.4-1.9c0.2,0.6,0.3,1.3,0.5,1.9
							c17.2,65.6,34.4,131.2,51.6,196.8c14.5,55.2,29,110.4,43.6,165.6c0.7,2.6,1.5,5.1,2.5,7.6c0.5,1.3,1.9,2,3.3,1.9
							c1.9-0.2,3.1-1.7,3-3.5c-0.2-2.6-0.8-5.3-1.4-7.9c-11.3-43.2-22.7-86.4-33.9-129.6c-4.6-17.7-9.1-35.5-13.6-53.3
							c3.7,1.6,3.2,5.5,4.1,8.3c5.7,18.6,11.1,37.3,16.6,56c13.6,46.1,27.1,92.2,40.7,138.2c0.9,2.9,1.8,5.8,3,8.5
							c0.7,1.7,2.4,2.3,4.2,1.8c1.9-0.6,2.5-2.2,2.3-4c-0.2-1.6-0.7-3.3-1.1-4.9c-1.1-4.2-2.3-8.3-3.4-12.5c2.1-0.3,2.5,1.4,3,2.8
							c3.4,10.1,6.7,20.2,10.1,30.3c0.8,2.5,1.7,5.1,2.7,7.5c0.9,2.1,3.4,3.2,4.9,2.1c2.1-1.5,3.3-3.4,0.7-5.6c0,0,0,0,0,0
							c1.1,0.4,2.8-0.4,3.4,1.3c1.5,4.1,3,8.2,4.6,12.3c1.4,3.8,2.7,7.6,4.3,11.3c0.7,1.6,2.4,2.4,4.2,1.8
							C1665.7,1745.7,1666.8,1744.2,1666.3,1742.5z M1554.8,1472.4l0.4-0.6l0.1,0.7L1554.8,1472.4z M1557,1480.4
							c-0.1-0.5-0.3-1.1-0.3-1.6c0-0.2,0.3-0.4,0.5-0.6c0.1,0.5,0.3,1.1,0.4,1.6C1557.5,1480,1557.2,1480.2,1557,1480.4z
							 M1559.5,1490.5c-0.3-0.8-0.7-1.6-0.9-2.5c-0.1-0.4,0.4-0.9,0.6-1.4c0.2,0.5,0.6,1,0.6,1.5
							C1559.9,1488.9,1559.7,1489.7,1559.5,1490.5z M1620,1659.4c-0.1,0-0.6-0.3-0.6-0.5c0.1-1,0.5-1,0.8,0.1c0,0.1,0.1,0.2,0.1,0.3
							C1620.2,1659.3,1620.1,1659.3,1620,1659.4z M1621.6,1660C1621.6,1660,1621.6,1660,1621.6,1660c0.2,2.6,0.5,5.1,0.7,7.7
							C1620,1665.4,1621.7,1662.5,1621.6,1660z M1625.9,1682.2c-1.3-4.5-3.1-8.8-3.3-13.6C1624.9,1672.9,1627.8,1677,1625.9,1682.2z
							 M1639.7,1690.6l-0.1-0.6l0.4,0.1L1639.7,1690.6z M1642.1,1697.7c-0.2-0.1-0.6-0.5-0.5-0.7c0.3-0.9,0.5-0.8,0.9,0.3
							c0.1,0.4,0.5,0.8,0.9,1.1C1642.9,1698.2,1642.5,1698,1642.1,1697.7z M1643.6,1698.8c0.4,2.1,0.5,4.2,1.9,6
							C1642.7,1703.5,1643.2,1701.2,1643.6,1698.8z M1645.6,1705c0.6,2,1.2,4,1.8,6.1C1644.6,1709.7,1645,1707.4,1645.6,1705z
							 M1647.4,1719.6c0.7-2.8-1-5.6,0.1-8.3C1648.9,1714.1,1649.1,1716.8,1647.4,1719.6z"/>
						<path class="st1" d="M713.7,320.4c1.4,0.2,2.6,0.7,3.2,2.1c0.8,1.9,1.5,3.7,2.1,5.6c30.7,100.1,64.5,203.1,95.2,303.2
							c0.6,1.9,1.1,3.9,1.7,5.8c0.9,2.9-0.9,4.4-3,5.7c-1.3,0.8-2.7,0.8-3.3-0.8c-1-2.5-1.8-5-2.6-7.6
							c-30.7-100.1-64.4-203.1-95.1-303.2c-0.8-2.6-1.8-5-1.6-7.8C710.5,321.9,712.3,320.2,713.7,320.4z"/>
						<path class="st1" d="M1432.3,381.4c1.3,15.7,2.5,31.4,3.8,47.2c0.2,2.6-0.2,4.6-3,5.5c-2.6,0.9-3.9,0.4-4.3-2.2
							c-0.5-3.3-0.9-6.7-1.1-10c-2.4-30.1-4.8-60.2-7.1-90.3c-0.2-2.6-0.1-5.3,0.1-8c0.1-1.4,1.5-2.3,2.9-2.3c1.3,0,2.6,0.7,3.2,2.1
							c1.5,4.2,1.6,8.6,1.9,12.9c1.2,15,2.3,30.1,3.5,45.2C1432.2,381.4,1432.3,381.4,1432.3,381.4z"/>
						<path class="st1" d="M951.8,602.6c0.6,0.1,0.9,0.2,1,0.2c0.5,0.1,1.1,0.1,1.6,0.2c0.8,0.1,1.6,0.3,2.3,0.5c0-1.4,0-2.5,0-2.5
							c-0.7-6.3-1-10.6-1.7-14.9c-0.3-1.7-1.6-3-3.5-2.8c-2,0.1-3.3,1.6-3.2,3.2c0.1,5.3,0.4,10.6,0.9,15.9
							C950,602.3,950.9,602.4,951.8,602.6z"/>
					</g>
					<g id="Слой_5">
						<radialGradient id="SVGID_13_" cx="375.6" cy="425.32" r="755.0119" gradientUnits="userSpaceOnUse">
							<stop  offset="0.6672" style="stop-color:#5DB9D9"/>
							<stop  offset="0.7005" style="stop-color:#63BEDC"/>
							<stop  offset="0.745" style="stop-color:#74CCE4"/>
							<stop  offset="0.7957" style="stop-color:#90E2F2"/>
							<stop  offset="0.8332" style="stop-color:#A9F7FF"/>
							<stop  offset="0.8353" style="stop-color:#A4F0F9"/>
							<stop  offset="0.8543" style="stop-color:#7EB2C7"/>
							<stop  offset="0.8731" style="stop-color:#5C7D9C"/>
							<stop  offset="0.8912" style="stop-color:#415278"/>
							<stop  offset="0.9087" style="stop-color:#2C315D"/>
							<stop  offset="0.9253" style="stop-color:#1C1949"/>
							<stop  offset="0.9407" style="stop-color:#130A3D"/>
							<stop  offset="0.9535" style="stop-color:#100539"/>
						</radialGradient>
						<path class="st21" d="M924.4,922c-79.1-0.6-146.5-56.7-160.9-134.7c-4.2-22.9-4.4-22.9-1.8-46.3
							c9-80.1,69.6-133.3,135.3-144.2c90-14.9,172.1,45,188.1,131.2c6.2,33.4,2.9,65.8-11.5,96.5c-24.3,52-64.7,84.1-121.6,94.5
							C942.9,920.6,933.6,921,924.4,922z M1078.3,759.1c-2.5-0.4-3.8-0.6-5.1-0.8c-7.9-0.9-16-1.2-23.7-2.8c-28-5.9-55.2-14.4-81-27
							c-20.6-10.1-41.3-19.8-63-27.5c-16.6-5.9-33.7-10-51.2-12.3c-18.2-2.4-36.5-1.9-54.8-2c-2.6,0-5.3,0.4-7.9,0.8
							c-3.1,0.5-5.3,2.1-6.7,5.2c-5.1,11.2-9.1,22.8-11.4,35c-0.3,1.4,0.4,3,0.6,4.3c6.6-0.6,12.6-0.9,18.5-1.6
							c14.9-1.8,29.8-1.7,44.7,0.3c35.1,4.8,67.8,15.8,97.8,34.8c8.4,5.3,17,10.4,25.5,15.7c28.8,18.1,60.3,29.2,93.1,36.8
							c3.9,0.9,7.8,1.5,12.2,0.7C1074.1,799.9,1078.1,780.3,1078.3,759.1z M771.4,752c-0.4,1.4-0.8,2.1-0.8,2.7
							c-1.3,20.6,3.1,40.2,10.3,59.4c1.4,3.8,3.9,6.1,7.6,7.3c7.6,2.4,15,5.6,22.8,7c21.3,3.9,42.8,6.1,64.4,5.8
							c15.9-0.2,31.9-1.4,47.8-2.4c14.3-1,28.5-1.7,42.8,0.6c11.1,1.8,22.3,3.6,33.4,5.4c6.8,1.1,13.7,2,20.6,3
							c-1.1-2.3-2.6-3.4-4.2-4.2c-6.3-3-12.7-5.9-18.9-9c-15.8-7.9-30.4-17.7-44.9-27.8c-24.9-17.4-50.8-32.4-79.8-42.4
							c-25.3-8.7-50.9-12.4-77.4-9.9C787.2,748.1,779.2,748.6,771.4,752z M1046.7,674.4c-3.5-5.8-3.5-5.9-7.2-8.3
							c-7.6-4.8-15.6-8.9-24.5-10.9c-8.1-1.8-16.2-3.7-24.4-4.6c-20.8-2.3-41.4-5.9-61.9-9.9c-15.3-2.9-30.5-6.7-46-8.6
							c-15-1.9-30.4-3.8-45.2,2.5c-0.9,0.4-2,0.3-2.9,0.3c-4.2-0.1-6.4,2.6-9.1,5.4c6.9,7.1,14.4,12.5,22.6,16.9
							c21.7,11.8,45.4,16.6,69.5,19.6c20.5,2.5,41.2,1.1,61.6-1.1c21.2-2.3,42.3-3.5,63.6-1.2C1044,674.8,1045.2,674.5,1046.7,674.4
							z M809.2,851.6c6,8.3,12.2,15.5,21.4,19.4c8.9,3.9,18.2,6.5,27.8,7.4c17.2,1.7,34.5,1.4,51.7-1c12.6-1.7,25.3-2.5,37.8-0.4
							c18.5,3.1,37.7,4.1,54.3,13.8c9.6-5.8,18.3-11.6,25.9-19.6c-1.2-0.9-1.9-1.8-2.8-1.9c-11.4-2.4-22.8-4.4-34.1-7
							c-22.1-5-44.5-7.8-67.2-7.7c-19.3,0.1-38.5,0.6-57.8,1.2c-18,0.5-35.9,0-53.5-4.3C811.9,851.4,810.9,851.6,809.2,851.6z
							 M1019,636.8c-4.2-3.2-6.7-5.3-9.4-7.1c-25.6-16.9-53.7-25.5-84.4-25.8c-18.7-0.2-36.9,3.1-54.6,9.6c-0.9,0.3-1.9,0.7-2.7,1.2
							c-0.9,0.6-2.8,0.6-1.8,3c1,0.3,2.2,0.7,3.4,0.9c16,2.7,32,5.4,48,8.1c10.8,1.8,21.4,4.6,32.4,4.9c9.9,0.3,19.9,0.6,29.8,1.1
							c5.6,0.3,11.2,0.7,16.8,1.3C1003.4,634.7,1010.1,635.7,1019,636.8z M1074.4,726.3c0-5.1-0.4-10.3-5.5-13
							c-17.1-9.2-35.2-15.6-54.9-16.3c-18.9-0.7-37.9-0.8-56.8-1.1c-1.2,0-2.7-0.5-3.3,1.3C978,712.6,1051,730.3,1074.4,726.3z
							 M860.6,897.2c28.7,17.3,90.9,20.1,112.5,5.3c-2.5-2.5-5.8-3-9-3.9c-12.8-3.7-25.9-6-39.3-5.6c-20.6,0.6-41.1,2-61.6,3.2
							C862.7,896.2,862.1,896.6,860.6,897.2z M798.8,668.5c7.5,1.3,34.2,0.7,41.5-0.8c-10.1-5.2-20-8.4-29.9-13.3
							C806.7,658.9,803.2,663.2,798.8,668.5z"/>
						<linearGradient id="SVGID_14_" gradientUnits="userSpaceOnUse" x1="298.0437" y1="-42.9755" x2="1035.3237" y2="409.1845">
							<stop  offset="0.2736" style="stop-color:#E3F0FF"/>
							<stop  offset="0.3051" style="stop-color:#DEEAF9"/>
							<stop  offset="0.3472" style="stop-color:#D1DBE8"/>
							<stop  offset="0.3954" style="stop-color:#BAC0CC"/>
							<stop  offset="0.4481" style="stop-color:#9B9CA5"/>
							<stop  offset="0.5038" style="stop-color:#746E74"/>
							<stop  offset="0.5585" style="stop-color:#473A3C"/>
							<stop  offset="0.8004" style="stop-color:#4E3B51"/>
						</linearGradient>
						<path class="st22" d="M669.3,338.6c-84.4,0.3-154.7-67.1-154.7-153.8C514.6,93,589.1,30.5,667.4,30
							c84.9-0.6,155.4,67.4,155.8,153.8C823.5,269.2,754.6,338.3,669.3,338.6z M531.8,230.8c3.6,1.2,6.7,2.3,9.9,3.2
							c22.7,6.4,45.2,13.2,68.1,18.9c15.1,3.8,30,8.6,45.7,9.9c12.3,1,24.6,2.4,36.8,0.2c13.3-2.4,26.4-1.6,39.7-0.1
							c9.2,1.1,18.5,1.9,27.8,2.1c8.6,0.2,17.3-0.6,25.6-3.2c3.5-1.1,7.2-2.2,9.1-5.6c3.6-6.3,7.3-12.5,9-19.9
							c-1.5-1.3-2.7-2.4-4-3.4c-10.8-8.2-23.5-12-36.4-15.3c-9-2.3-17.8-1.6-26.6,0.7c-9.3,2.5-18.7,4.8-27.7,8
							c-14.2,4.9-28.6,8.3-43.5,10.3c-14.5,1.9-28.5,0.9-42.2-3.8c-14.1-4.9-28.1-10-42.1-15.4c-11-4.3-22.4-6-34.1-6.2
							c-4-0.1-7.9,0.6-11.8-0.6c-2.4-0.7-5.3-0.3-7.6,2.5c0.4,2.3,0.6,4.9,1.2,7.4C529.5,224,530.7,227.4,531.8,230.8z M586.3,205.3
							c0.9,0.8,1.3,1.4,1.8,1.6c14,4.3,28,8.4,41.9,12.7c11.7,3.6,23.7,3.8,35.5,1.8c11.1-1.9,22.2-4.2,33.1-7.2
							c17.3-4.9,34.8-8.4,52.8-9.2c18.6-0.8,36.4,1.5,53.5,9c1.4,0.6,2.9,1.1,4.8,1.8c4.1-14.3,4.1-28.2,3.4-42.1
							c-0.1-2.1-1-4.2-1.6-6.8c-5.9,0.9-11.1,1.5-16.3,2.5c-16.3,3.2-32.8,5.4-49.4,6.1c-14.1,0.6-27.6,3.6-41.1,7.1
							c-5.4,1.4-11,2.6-16.5,3.5c-16.7,2.7-33.6,4.7-50.2,7.8C620.9,197.1,603.8,201.4,586.3,205.3z M539.9,121.3c3,0,5.3,0.2,7.6,0
							c14.6-1.4,29.2-2,43.8-1.2c20.2,1.1,39.3,6.2,57.3,15.5c7.4,3.8,14.9,7.3,22.4,11c30.4,15.3,62.5,16.7,95.4,11.9
							c1.2-0.2,2.4-0.6,3.6-0.9c-0.5-3.1-3.1-3.7-5-4.9c-20.1-13.3-41.8-23.1-64.3-31.5c-15.7-5.9-31.9-9.2-48.5-10.9
							c-30.1-3.1-59.8-8.6-89.5-14.8c-2.2-0.5-4.5-0.9-6.4-1.3C547.9,103.3,542.7,111.9,539.9,121.3z M566.5,83.6
							c8,1.9,15,3.9,22.1,5.4c12.6,2.6,25,6.2,38.2,6.1c19.7,0,39.1-1,58.2-6.3c9-2.5,17.9-4.9,26.9-7.3c14.7-4,29.5-7.8,44.9-8.3
							c0.5,0,1-0.7,2-1.4c-0.8-1-1.3-2.1-2.2-2.8c-5.2-3.6-10.5-6.9-15.7-10.6c-7.2-5-15.2-6.4-23.7-6c-2.6,0.1-5.3,0.2-7.9,0.6
							c-5.2,0.9-10.4,2.1-15.6,3c-28.9,4.8-58,7.1-87.3,5.2c-2.6-0.2-5.3-0.1-7.9,0.2C587.5,63,575.4,71.2,566.5,83.6z M807.8,149.5
							c0.4-1.5,0.9-2.2,0.8-2.7c-4.7-18.2-13-34.7-24.2-49.8c-2.1-2.8-4.7-4.3-8.2-5c-16.2-2.9-32.5-3-48.6-0.7
							c-16.4,2.4-32.6,6.1-48.9,9.2c-1.2,0.2-2.2,1.1-4.4,2.2c2.4,0.8,3.5,1.2,4.6,1.5c16.7,4.4,33.3,9,49.2,15.8
							c15.3,6.5,30.7,12.6,46,19C784.9,143.3,795.9,146.9,807.8,149.5z M540.7,249.8c2.9,10.3,16.5,27.7,22.2,33.2
							c2,2,4.6,2.5,7.2,3.2c22.8,6,46,6.7,69.3,4.9c23.8-1.9,47.6-4.8,71.4-7.3c7.3-0.8,14.1-2.9,21.7-7.5c-14.5-2.8-27.4-6-40.9-3
							c-1.6,0.4-3.3,0.5-5,0.6c-17.7,0.9-35.2,0.8-52.6-3.3c-10.7-2.5-21.3-5.3-32-7.5c-12.4-2.6-24.8-4.6-37.2-7.1
							C557.2,254.2,549.5,252,540.7,249.8z M525.1,200.2c4.4-0.3,7.4-0.5,10.3-0.8c11.2-1.1,22.4-2.6,33.7-3.1
							c14-0.7,27.7-2.7,41.3-5.9c15.8-3.7,31.5-7.8,47.7-9.7c11.2-1.3,22.3-3.1,33.5-4.7c2.9-0.4,6-0.4,8.2-3.2
							c-10-3.1-19.9-4.4-30.4-3.4c-27.4,2.6-55,4-82.5,2.8c-18.6-0.8-37.1-2-55.5-4.8c-1.8-0.3-3.7,0-6.3,0
							C523.7,178.4,523.4,188.8,525.1,200.2z M651.7,157.5c0.2-0.6,0.4-1.2,0.5-1.9c-1.6-1.1-3.1-2.3-4.9-3.1
							c-8.2-3.6-16.4-7.3-24.7-10.7c-13.7-5.5-28-8.1-42.8-8.1c-13,0-25.9,0.3-38.8,2.3c-9,1.4-9.7,1.8-11.9,10.6
							c-0.2,0.9,0,1.8,0,3c1.3,0.5,2.5,1.1,3.8,1.3c22.5,4.8,45.1,8.2,68.2,7.9c15-0.2,29.9-0.5,44.9-0.8
							C647.9,157.9,649.8,157.6,651.7,157.5z M588.9,304c15.4,12.7,43.7,23.2,72,25.1c16,1.1,37.6-1.8,45.7-6.3
							c-2.4-3.1-5.9-4.2-9.2-5.7c-15.6-7.2-32.3-10.3-49.2-11.3c-17.9-1.1-35.8-1.4-53.8-2.1C593,303.7,591.7,303.9,588.9,304z
							 M773,284.3c-15.1-2.3-28.2-1.2-40.8,3.4c-10.1,3.7-20.2,6.5-31.1,6.3c-4.2-0.1-8.3,0.8-13.2,2.7c12.2,4.5,23.3,8.7,34.5,12.6
							c12.2,4.2,14.2,3.8,25.1-3.4C756.3,300.1,764.9,293.8,773,284.3z M692.8,42.2c-1.5-0.5-3-1.3-4.5-1.5
							c-19.9-2.1-39.7-1.3-59,4.3c-1.1,0.3-2.6,0.8-2.6,2.8C648.9,49.1,670.9,47.8,692.8,42.2z"/>
						<linearGradient id="SVGID_15_" gradientUnits="userSpaceOnUse" x1="1399.2212" y1="546.6998" x2="1645.4612" y2="719.4998">
							<stop  offset="0.2307" style="stop-color:#D68F3B"/>
							<stop  offset="0.2832" style="stop-color:#D08C3A"/>
							<stop  offset="0.3534" style="stop-color:#BF8236"/>
							<stop  offset="0.4332" style="stop-color:#A37331"/>
							<stop  offset="0.5031" style="stop-color:#85622B"/>
							<stop  offset="0.6064" style="stop-color:#72502B"/>
							<stop  offset="0.8152" style="stop-color:#41212D"/>
							<stop  offset="0.8762" style="stop-color:#31122D"/>
						</linearGradient>
						<path class="st23" d="M1480.2,428.4c96.4-0.3,175.2,78.4,175.4,175.1c0.2,96.5-78.4,175.3-175,175.4
							c-96.7,0.1-175.1-78.1-175.4-175C1304.8,507.3,1383.4,428.6,1480.2,428.4z M1401,748.4c2.4,1.5,3.9,2.7,5.6,3.5
							c37.1,18,75.7,22.3,115.5,11.9c82.3-21.5,135-101,121.8-185.5c-7.2-46-30.3-82.4-67.7-110c-5-3.7-9.8-4-14.9-2.1
							c-3.3,1.3-6.3,3.6-9.2,5.7c-2.7,2-4.9,4.5-7.5,6.5c-5.3,4.1-11,5.3-17.8,4c-11.1-2-22.4-3-32.7-8.3c-0.6-0.3-1.3-0.4-1.9-0.5
							c-5.3-0.4-9.6-2.8-12.9-6.8c-2.3-2.8-5.1-4.2-8.5-4.8c-11.3-1.9-21.5-6.9-31.8-11.4c-11-4.8-10.9-5-21.4-0.7
							c-0.3,0.1-0.6,0.3-0.9,0.4c-71.3,29.6-109.6,102.8-100.9,172.4c3.5,27.6,13,52.8,28.9,75.6c0.8,1.1,1.3,3.2,3.8,2.4
							c0.3-2.5,0.8-5.1,0.9-7.7c0.5-9.3,4.1-17.4,9.1-25c1.4-2.2,2.9-4.5,4-6.9c3.8-8.3,10.5-12.9,19.2-14.1
							c12.2-1.7,24.4-2.6,36.2-6.7c4.6-1.6,8.6,0.5,11.3,4.3c1.5,2.1,2.4,4.7,3.4,7.1c1.1,2.7,1.8,5.5,2.6,8
							c2.3,0.8,3.9,1.4,5.4,1.9c6.2,2.1,10,6.4,11.8,12.5c0.6,1.9,1.2,3.8,1.6,5.7c1.2,5.2,3.2,10.1,5.6,14.9
							c2.7,5.4,5.7,10.5,9.7,15c3.1,3.5,5.9,7.2,6.8,12c0.9,5.3-1.5,9.3-6.6,10.7c-5.3,1.4-10.6,1.1-15.6-1
							c-2.8-1.2-5.4-2.5-8.1-3.8c-3.1-1.5-6.3-2.3-9.5-0.3c-5,3-10.1,2.6-15.3,0.5c-2.8-1.2-5.6-1.9-9-0.4c0.1,1.7,0.1,3.3,0.3,4.9
							c0.2,1.6,0.8,3.2,1,4.9c0.4,3.9-0.9,6.4-4.4,8.1C1406.7,746.6,1404.3,747.2,1401,748.4z"/>
						<radialGradient id="SVGID_16_" cx="1593.84" cy="291.4" r="356.5309" gradientUnits="userSpaceOnUse">
							<stop  offset="0.4359" style="stop-color:#F16746"/>
							<stop  offset="0.489" style="stop-color:#EB6342"/>
							<stop  offset="0.56" style="stop-color:#DA5836"/>
							<stop  offset="0.6391" style="stop-color:#BF4624"/>
							<stop  offset="0.6789" style="stop-color:#A03823"/>
							<stop  offset="0.7412" style="stop-color:#752523"/>
							<stop  offset="0.8017" style="stop-color:#541622"/>
							<stop  offset="0.8591" style="stop-color:#3C0B21"/>
							<stop  offset="0.9122" style="stop-color:#2D0421"/>
							<stop  offset="0.9568" style="stop-color:#280221"/>
						</radialGradient>
						<path class="st24" d="M1751.4,574.1c-76.2,0-136.2-62.3-135.8-136.8c0.4-71.7,57.8-135.5,136.6-135
							c80.5,0.5,135.5,65.9,135.3,136.3C1887.3,514,1825.7,574.5,1751.4,574.1z M1877.1,435.9c1.2-12-1.4-22.2-3.9-32.5
							c-1.1-4.3-3.6-6.8-7.6-8.5c-11-4.5-22.2-6-34.1-4.4c-15.9,2.1-31.8,2.9-47.6-1c-6.7-1.7-13.2-4.3-19.7-6.9
							c-14.9-5.8-30.4-7.2-46-4.5c-8.1,1.4-16,4.2-23.9,6.6c-3.5,1-7,2.2-10.3,3.8c-10.2,4.9-20.2,10-30.3,15.1
							c-0.4,0.2-0.6,0.9-0.9,1.5c0.9,0.5,1.7,1.1,2.6,1.5c16,6.4,32.2,12.4,48,19.3c16.6,7.3,33.4,12.3,51.8,12.5
							c14.1,0.2,27.8-0.2,41.4-4.3c6-1.8,12.3-3,18.5-4.1c9.5-1.6,19-2.4,28.8-1.1C1854.8,430.3,1865.5,432.2,1877.1,435.9z
							 M1863.7,495.5c-7.2-6.6-15.2-11.2-24.1-14.1c-7.9-2.5-16-4.5-24.1-6c-14.1-2.6-28.1-5-41.4-10.5
							c-10.7-4.4-21.7-8.2-32.7-12.1c-16.1-5.7-32.4-6.4-48.9-1.6c-5.4,1.6-11,2.7-16.5,3.7c-8.8,1.5-17.7,2.9-26.8,1.7
							c-5.9-0.8-11.8-1.8-17.8-2.5c-1.5-0.2-3.1,0.1-5.1,0.2c0.3,2.6,0.5,4.5,0.8,6.4c0.4,2.2,1.1,4.4,1.5,6.1c1.3,0.5,1.9,1,2.5,1
							c3,0,6-0.1,8.9-0.3c24.5-1.5,48.4,1.7,71.5,10c17.5,6.3,34.9,12.9,52.2,19.6c18.8,7.3,38.1,11.6,58.3,11.2
							c8.6-0.2,17.3-0.4,25.9-0.7c9.9-0.4,9.9-0.5,14.5-9.1C1863,497.9,1863.1,497.2,1863.7,495.5z M1664.2,347.5
							c-7.8,6.9-14.7,15.1-19.6,23.5c-0.7,1.2-0.9,2.8-1.5,5.1c4.5,0,8.2,0,11.8,0c17.4,0.2,34.5-1.7,51.4-5.4
							c8.7-1.9,17.5-3.6,26.6-3.4c13.4,0.4,26.4,2.5,38.7,8.1c11.7,5.3,24.1,7.4,36.9,7c7.6-0.2,15.3-0.6,22.9-1.5
							c9.7-1.1,19.2-0.6,28.6,1.9c1.4,0.4,3,0.2,5.3,0.3c-3.6-8.2-8-14.7-12.7-21.2c-5.9-8.2-14-11.8-23.8-12.5
							c-8.1-0.5-15.9,0.9-23.4,3.7c-11.4,4.2-23.2,5.5-35.3,4.8c-9.6-0.5-19.3-0.7-28.9-0.5C1715.1,358.1,1689.4,356.2,1664.2,347.5
							z M1674,340.3c3.7,1.8,7.5,2.5,11.3,3.4c18.3,4,36.9,4.6,55.6,4.3c9.3-0.1,18.6,0,27.9,0.7c11.1,0.8,21.9-0.4,32.4-4.1
							c8.2-2.8,16.6-5,25.3-5c0.4,0,0.9-0.7,1.3-1.1c-16.5-16.7-53.7-28.7-84-26.6C1717.5,313.6,1684.5,326.6,1674,340.3z
							 M1747.1,500.8c-5.5-2.1-10.9-4.3-16.4-6.4c-18-6.8-36-13.5-55.3-16.1c-14.2-1.9-28.3-1.9-43.1-0.4c0.5,2.4,0.7,4.3,1.4,6.1
							c5,12.8,12,24.3,20.5,35.1c3.6,4.5,7.8,6,13.1,4.7c6.1-1.4,12.3-2.7,18.3-4.6C1705.8,512.9,1725.9,506.1,1747.1,500.8z
							 M1823.9,540.1c-2.9-0.9-5.7-1.9-8.5-2.7c-24.8-6.9-50-6.4-75.2-3.3c-15.9,1.9-30.5,8.9-45.2,15c-0.3,0.1-0.4,1-0.6,1.8
							c16.1,8.8,33.4,12.9,51.5,13.8c19.5,1,38.4-2.7,56.3-10.6C1814.6,548.6,1819.3,545.7,1823.9,540.1z M1868,485.2
							c6-10.4,9.8-27.4,8.5-38.6c-2.1-0.9-4.4-2.3-6.9-3c-17.7-5.1-35.6-8.1-54.1-4c-5.8,1.3-11.8,2.3-17.5,4
							c-10.3,3.1-20.8,4.2-31.5,4.4c-1.2,0-2.3,0-6,0c2.8,1.8,3.5,2.4,4.4,2.8c16.2,7.1,32.8,12.5,50.4,14.9
							c17.9,2.4,35.1,7.5,49.9,18.5C1866,484.8,1867.1,484.9,1868,485.2z M1681.4,543.2c12.5-4.5,24.9-9.1,37.4-13.3
							c5.9-2,12.1-3.6,18.2-4.8c14.1-2.8,28.5-2.3,42.7-2.2c15.4,0,30.4,3.1,45.1,7.4c2.5,0.7,5.2,1.3,7.8,1.6
							c1.5,0.1,3.3-0.2,4.7-1c3.3-1.7,8.1-8,10.5-13.1c-7.8,0-15.3-0.1-22.8,0c-13,0.2-25.8-0.9-38.6-3.6
							c-7.7-1.6-15.8-2.2-23.7-2.6c-13.8-0.7-27.1,2.7-40.2,6.3c-16.6,4.7-33.1,9.9-49.6,14.9c-0.9,0.3-1.6,0.9-2.7,1.6
							C1673.3,538.2,1677.3,540.5,1681.4,543.2z M1628.3,414.7c-3.2,9.4-3.8,19.3-1.7,28.8c10.6,1.9,21.3,4.1,32.4,3.9
							c2.3,0,4.7,0.1,7-0.4c13.2-2.6,26.3-5.4,40.7-8.4c-2.2-1.5-3.1-2.5-4.2-2.9c-15-6.2-30-12.5-45.2-18.3
							c-4.9-1.9-10.2-2.9-15.4-3.9C1637.2,412.7,1632.5,412.4,1628.3,414.7z M1665.3,385.7c-6.3,0-10.6-0.1-14.9,0
							c-4.6,0.1-9.3-0.8-14,1.1c-2.1,4.6-5.4,8.8-4.6,14.6C1643,398.2,1657,391.8,1665.3,385.7z"/>
						<radialGradient id="SVGID_17_" cx="729.84" cy="287.08" r="431.6732" gradientUnits="userSpaceOnUse">
							<stop  offset="0.2653" style="stop-color:#FB96C1"/>
							<stop  offset="0.3404" style="stop-color:#FA90BD"/>
							<stop  offset="0.4406" style="stop-color:#F67FB1"/>
							<stop  offset="0.5524" style="stop-color:#F0649E"/>
							<stop  offset="0.6047" style="stop-color:#DD5A93"/>
							<stop  offset="0.7109" style="stop-color:#AB3F77"/>
							<stop  offset="0.8603" style="stop-color:#5C144B"/>
							<stop  offset="0.8782" style="stop-color:#520F45"/>
						</radialGradient>
						<path class="st25" d="M796.4,436.2c-0.6-82.4,64.8-155.6,155-155.7c87-0.1,154.2,69.4,155,153.8
							c0.7,83.6-65,155.8-154.5,156.2C863.3,590.8,796.8,519.8,796.4,436.2z"/>
						<radialGradient id="SVGID_18_" cx="902.64" cy="14.92" r="440.3571" gradientUnits="userSpaceOnUse">
							<stop  offset="0.1321" style="stop-color:#D5A477"/>
							<stop  offset="0.2793" style="stop-color:#CF9E71"/>
							<stop  offset="0.4578" style="stop-color:#C09063"/>
							<stop  offset="0.5266" style="stop-color:#AD7F5B"/>
							<stop  offset="0.6664" style="stop-color:#7B5246"/>
							<stop  offset="0.8631" style="stop-color:#2C0B25"/>
							<stop  offset="0.8726" style="stop-color:#280723"/>
						</radialGradient>
						<path class="st26" d="M1132.4,35.5c75.9,0,133,62.8,132.5,133.7c-0.4,67.1-53.9,131.6-132.6,131.7
							c-76.7,0-133.5-61.2-133-133.2C999.9,90.8,1062.6,34.9,1132.4,35.5z"/>
						<linearGradient id="SVGID_19_" gradientUnits="userSpaceOnUse" x1="1380.6991" y1="464.0138" x2="1626.9391" y2="636.8138">
							<stop  offset="0.2307" style="stop-color:#D68F3B"/>
							<stop  offset="0.2832" style="stop-color:#D08C3A"/>
							<stop  offset="0.3534" style="stop-color:#BF8236"/>
							<stop  offset="0.4332" style="stop-color:#A37331"/>
							<stop  offset="0.5031" style="stop-color:#85622B"/>
							<stop  offset="0.6064" style="stop-color:#72502B"/>
							<stop  offset="0.8152" style="stop-color:#41212D"/>
							<stop  offset="0.8762" style="stop-color:#31122D"/>
						</linearGradient>
						<path class="st27" d="M1580.3,556.6c-1.5,12-2.6,25.6-7.9,38.4c-1.5,3.6-2.5,7.5-3.2,11.4c-1.4,7.2-2,14.5-3.6,21.6
							c-1.6,7.1-3.7,14.1-6.1,21c-1.2,3.5-3.5,6.6-7.9,6.4c-3.3-0.2-5.8-2.7-6.9-7.5c-0.6-2.6-0.7-5.3-0.8-7.9
							c-0.3-10.4-3.3-20.3-6.8-30c-2.1-6-5.6-9.5-12.4-9.1c-4.8,0.3-9.2-1.3-12.2-5.5c-2-2.7-4.8-3.3-8-2.9
							c-2.6,0.3-5.3,0.6-7.9,0.7c-4.8,0.1-9.2-1.3-13.1-4.1c-4.6-3.2-7.6-7.3-7.3-13.3c0.2-2.6-0.2-5.3,0.1-8
							c0.4-4.5-1.6-7.6-4.9-10.2c-2.4-1.8-4.9-3.5-7-5.6c-12.4-12.4-12.2-24.1-0.8-35.6c7-7.1,16.1-10.4,25.6-12.4
							c4.2-0.9,8.4-1.9,12.6-2.7c3.6-0.7,7.2-1.2,10.8-1.7c3.6-0.5,7.3-0.6,10.8-1.4c6.5-1.4,11.9,0.6,16.2,5.3
							c2.7,2.9,4.9,6.3,7.1,9.6c2.5,3.9,4.8,8,7.2,12c2.2,3.7,5.5,5.5,9.7,6.2c13.3,2.2,15.3,4.5,16.4,17.8
							C1580,551.1,1580.1,553,1580.3,556.6z"/>
						<linearGradient id="SVGID_20_" gradientUnits="userSpaceOnUse" x1="1326.2407" y1="531.4649" x2="1572.4807" y2="704.2649">
							<stop  offset="0.2307" style="stop-color:#D68F3B"/>
							<stop  offset="0.2832" style="stop-color:#D08C3A"/>
							<stop  offset="0.3534" style="stop-color:#BF8236"/>
							<stop  offset="0.4332" style="stop-color:#A37331"/>
							<stop  offset="0.5031" style="stop-color:#85622B"/>
							<stop  offset="0.6064" style="stop-color:#72502B"/>
							<stop  offset="0.8152" style="stop-color:#41212D"/>
							<stop  offset="0.8762" style="stop-color:#31122D"/>
						</linearGradient>
						<path class="st28" d="M1367.9,546.6c1.3,1.1,3.4,2.7,5.3,4.5c1.2,1.1,2.1,2.5,2.9,4c3.5,6.9,0,14.2-7.7,14.5
							c-8.2,0.3-16.5-0.3-24.6-1.4c-5.9-0.8-9.7-6-9.8-12c0-2.6,0.6-5.2,1.2-7.7c0.7-2.9,2.2-5.6,2.7-8.4c0.9-5.2,3.9-8.2,8.7-9.7
							c1.6-0.5,3.1-1.1,4.8-1.3c10.2-1.5,15.4,3,16,13.4C1367.5,543.4,1367.6,544.4,1367.9,546.6z"/>
						<g>
							<radialGradient id="SVGID_21_" cx="279.12" cy="251.08" r="528.0698" gradientUnits="userSpaceOnUse">
								<stop  offset="0.3354" style="stop-color:#FFB247"/>
								<stop  offset="0.4407" style="stop-color:#FCAC42"/>
								<stop  offset="0.5813" style="stop-color:#F29B35"/>
								<stop  offset="0.6856" style="stop-color:#E98A27"/>
								<stop  offset="0.7025" style="stop-color:#D47B26"/>
								<stop  offset="0.7494" style="stop-color:#A05725"/>
								<stop  offset="0.7956" style="stop-color:#753823"/>
								<stop  offset="0.8399" style="stop-color:#542122"/>
								<stop  offset="0.882" style="stop-color:#3C1022"/>
								<stop  offset="0.9209" style="stop-color:#2D0621"/>
								<stop  offset="0.9535" style="stop-color:#280221"/>
							</radialGradient>
							<path class="st29" d="M569.2,707c-93.1,0-169.3-76.5-168.8-170c0.5-92.8,74.6-169.1,170-168.8c95.7,0.4,169.1,77.5,168.7,170
								C738.9,632.2,662.9,707,569.2,707z M638.2,680.9c41.4-12,89.6-78,89.1-122.4c-7.5-4.3-12.8-10.9-16.1-19.1
								c-1.4-3.5-4.4-5.7-7.2-8.1c-3.3-2.8-6.6-5.7-8.9-9.2c-5-7.5-8.3-15.8-10.1-24.7c-1.2-5.7-0.9-11.2,0.4-16.8
								c2.2-9.6,7-13.5,16.8-13.5c3.5,0,7,0.3,10.8,0.5c-31.1-70.1-124.9-116.3-212.7-73.9c-41.7,20.1-69.1,53-83.2,97.1
								c-11.1,34.5-8.3,78.6,4.2,102.5c1.9-1.3,3.8-2.7,5.7-4c5.4-3.6,11.5-5,17.9-5.1c17-0.3,31.5,7.2,45.9,14.8
								c0.9,0.5,1.6,1.2,2.3,1.9c4,4.1,4.5,9.9,0.8,14.4c-1.7,2-3.8,3.8-6,5.2c-5.6,3.6-11.7,6.1-18.4,7.2c-9,1.5-18,3.1-27,4.6
								c14.3,28,71,62.7,100.6,61.7c5-13.1,18.8-23,32.9-23c8.4,0,16.5-1.2,24.5-3.6c5.8-1.7,11.7-2.4,17.7-2.2
								c8.8,0.2,15.4,3.6,18.6,12.3C637.1,678.6,637.7,679.8,638.2,680.9z"/>
							<radialGradient id="SVGID_22_" cx="279.12" cy="251.08" r="528.0698" gradientUnits="userSpaceOnUse">
								<stop  offset="0.3354" style="stop-color:#FFB247"/>
								<stop  offset="0.4407" style="stop-color:#FCAC42"/>
								<stop  offset="0.5813" style="stop-color:#F29B35"/>
								<stop  offset="0.6856" style="stop-color:#E98A27"/>
								<stop  offset="0.7025" style="stop-color:#D47B26"/>
								<stop  offset="0.7494" style="stop-color:#A05725"/>
								<stop  offset="0.7956" style="stop-color:#753823"/>
								<stop  offset="0.8399" style="stop-color:#542122"/>
								<stop  offset="0.882" style="stop-color:#3C1022"/>
								<stop  offset="0.9209" style="stop-color:#2D0621"/>
								<stop  offset="0.9535" style="stop-color:#280221"/>
							</radialGradient>
							<path class="st30" d="M566.1,455.4c-6.9,1.3-13.8-0.7-20-5c-7.2-5-13.6-10.7-16.7-19.2c-5.1-13.8,3.4-26.1,18.1-25.6
								c2.9,0.1,5.9,0.8,8.7,1.7c11.7,4.1,23.9,5.8,36.2,6.1c5.1,0.1,10,0.7,14.6,2.7c4.7,2,8.5,5.1,11,9.7
								c4.3,7.8,2.1,15.3-5.8,19.3c-1.5,0.8-3,1.4-4.6,1.9C594.4,451,581,455,566.1,455.4z"/>
							<radialGradient id="SVGID_23_" cx="279.12" cy="251.08" r="528.0698" gradientUnits="userSpaceOnUse">
								<stop  offset="0.3354" style="stop-color:#FFB247"/>
								<stop  offset="0.4407" style="stop-color:#FCAC42"/>
								<stop  offset="0.5813" style="stop-color:#F29B35"/>
								<stop  offset="0.6856" style="stop-color:#E98A27"/>
								<stop  offset="0.7025" style="stop-color:#D47B26"/>
								<stop  offset="0.7494" style="stop-color:#A05725"/>
								<stop  offset="0.7956" style="stop-color:#753823"/>
								<stop  offset="0.8399" style="stop-color:#542122"/>
								<stop  offset="0.882" style="stop-color:#3C1022"/>
								<stop  offset="0.9209" style="stop-color:#2D0621"/>
								<stop  offset="0.9535" style="stop-color:#280221"/>
							</radialGradient>
							<path class="st31" d="M591.5,593.3c-1.1,0.3-2.7,0.8-4.2,1.2c-8.1,2-13.7-0.1-17.3-7.6c-3.6-7.2-5-15.1-3.8-23.2
								c1.1-7.4,6.5-11.9,14.7-12.2c6.7-0.2,13.2,1.2,19.2,4.2c7.1,3.5,14.3,6.9,21.2,10.9c4.2,2.5,8.2,5.6,11.8,9
								c3.2,3,4.8,7.1,5,11.6c0.4,7.4-2.8,12.9-9.7,15.7c-2.4,1-5.1,1.5-7.6,2.1c-2.9,0.7-5.8,1.2-8.7,1.9c-7.3,1.9-9.7,1-14.1-5.6
								c-1.6-2.5-3.3-4.9-5-7.3C592.7,593.8,592.3,593.7,591.5,593.3z"/>
						</g>
						<g>
							<radialGradient id="SVGID_24_" cx="1177.6801" cy="-94.52" r="521.5902" gradientUnits="userSpaceOnUse">
								<stop  offset="0.1694" style="stop-color:#C9C6C9"/>
								<stop  offset="0.3061" style="stop-color:#C3C0C3"/>
								<stop  offset="0.4885" style="stop-color:#B3B1B2"/>
								<stop  offset="0.5069" style="stop-color:#B1AFB0"/>
								<stop  offset="0.5767" style="stop-color:#9E9AA0"/>
								<stop  offset="0.7206" style="stop-color:#6F6578"/>
								<stop  offset="0.9123" style="stop-color:#27153B"/>
							</radialGradient>
							<path class="st32" d="M1293.6,185.1c0-79.4,63.6-146.5,146.5-146.8c80.5-0.3,147.4,64,147.2,147
								c-0.2,86.5-70.8,146.8-146.4,146.8C1359.5,332.2,1293.5,266.4,1293.6,185.1z M1309.3,225c1.7,0.8,2.8,1.6,4.1,1.9
								c8.9,2.3,13.8,8.4,17.1,16.6c4.1,10.2,9,20,13,30.2c1.7,4.3,4.2,7.6,8,9.7c4.9,2.6,8.2,6.5,11.2,11.1
								c3.9,6,9.2,10.2,15.7,13.4c29.8,14.7,60.9,18.1,93.1,11.2c7-1.5,14.2-3.2,19.5-6.4c2.6-6.9,4.8-12.7,7.2-19
								c-0.4-0.9-0.9-2.1-1.4-3.3c-5.5-12.1-4.2-20.6,5.2-29.8c3.1-3,4.2-6.6,5.7-10.3c3.6-8.7,11.2-13.3,20.5-12.6
								c5.2,0.4,9.8,2.2,13.7,5.4c3.8,3.1,7.2,6.8,10.8,10.3c1.4,1.3,2.6,2.8,4.2,4.6c12.7-20.1,19.4-41.4,20.8-64.4
								c1.6-26.9-4.2-52.2-17.4-75.7c-9.8-17.4-23.7-33.1-34.9-39.1c-0.5,0.7-1,1.5-1.6,2.3c-7.2,8.7-16.4,10.6-27,8
								c-2.6-0.6-5.2-1.1-7.8-1.4c-5.3-0.6-10.6-0.9-15.9-1.4c-5.7-0.5-11.8-1.4-15.4-6c-6.1-7.8-13.3-14.9-17.6-24
								c-1.2-2.6-2.5-5.3-3.6-7.7C1350.2,48.8,1281.7,136.1,1309.3,225z"/>
							<radialGradient id="SVGID_25_" cx="1177.6801" cy="-94.52" r="521.5902" gradientUnits="userSpaceOnUse">
								<stop  offset="0.1694" style="stop-color:#C9C6C9"/>
								<stop  offset="0.3061" style="stop-color:#C3C0C3"/>
								<stop  offset="0.4885" style="stop-color:#B3B1B2"/>
								<stop  offset="0.5069" style="stop-color:#B1AFB0"/>
								<stop  offset="0.5767" style="stop-color:#9E9AA0"/>
								<stop  offset="0.7206" style="stop-color:#6F6578"/>
								<stop  offset="0.9123" style="stop-color:#27153B"/>
							</radialGradient>
							<path class="st33" d="M1442.3,206.8c0.1,1.2,0,3.9,0.6,6.4c1.2,5.2-0.7,9.2-4.4,12.4c-2.7,2.4-5.8,4.4-8.9,6.2
								c-8.5,5.1-17.2,9.8-25.7,15c-7.7,4.7-12,4.6-18.7-1.5c-1.2-1.1-2.4-2.3-3.4-3.6c-3.3-4.3-7.4-7.6-12.5-9.5
								c-9.3-3.5-12.3-10.5-11.3-19.7c0.3-3.3,1.1-6.5,1.9-9.7c0.6-2.6,1.7-5.1,2.1-7.7c2.3-14.9,12.3-24.1,24.7-30.4
								c7.9-4.1,16.7-1.4,23.3,4.1c7.4,6.2,15.5,11.4,23.7,16.3c6.8,4,9.9,9.5,9.1,17.2C1442.7,203.4,1442.6,204.4,1442.3,206.8z"/>
							<radialGradient id="SVGID_26_" cx="1177.6801" cy="-94.52" r="521.5902" gradientUnits="userSpaceOnUse">
								<stop  offset="0.1694" style="stop-color:#C9C6C9"/>
								<stop  offset="0.3061" style="stop-color:#C3C0C3"/>
								<stop  offset="0.4885" style="stop-color:#B3B1B2"/>
								<stop  offset="0.5069" style="stop-color:#B1AFB0"/>
								<stop  offset="0.5767" style="stop-color:#9E9AA0"/>
								<stop  offset="0.7206" style="stop-color:#6F6578"/>
								<stop  offset="0.9123" style="stop-color:#27153B"/>
							</radialGradient>
							<path class="st34" d="M1541.8,161.5c0,0.7,0,1.3,0.1,2c0.9,10.1-6.9,13.3-13.9,12.1c-8-1.3-15.3-4.5-21.3-10
								c-7.5-6.8-16.2-11.5-25.4-15.3c-2.4-1-4.9-2.1-7-3.7c-5.3-3.9-7.3-9.3-6.1-15.8c1.2-6.3,5.9-10.7,12.4-10.9
								c3.6-0.1,7.4,0.2,10.8,1.2c9.2,2.8,18.4,5.6,27.9,7.1c2.6,0.4,5.1,1.4,7.6,2.4c7.5,3.2,12.6,8.4,13.4,17
								c0.4,4.6,1.2,9.2,1.8,13.8C1542,161.4,1541.9,161.5,1541.8,161.5z"/>
						</g>
						<g id="Слой_13">
							<linearGradient id="SVGID_27_" gradientUnits="userSpaceOnUse" x1="814.6075" y1="539.066" x2="1039.2474" y2="1005.626">
								<stop  offset="0.2762" style="stop-color:#C0D8DF"/>
								<stop  offset="0.338" style="stop-color:#BBD2DA"/>
								<stop  offset="0.4208" style="stop-color:#ADC1CD"/>
								<stop  offset="0.5155" style="stop-color:#96A5B7"/>
								<stop  offset="0.619" style="stop-color:#757E98"/>
								<stop  offset="0.7297" style="stop-color:#4B4C71"/>
								<stop  offset="0.8447" style="stop-color:#191042"/>
								<stop  offset="0.8642" style="stop-color:#100539"/>
							</linearGradient>
							<path class="st35" d="M765.5,727.9c-0.1,0.9,0.1,1.9-0.2,2.8c-2.8,9.1-0.9,18.4-2.7,27.7c-1.3,6.5-0.4,6.5-6.7,7.3
								c-12.1,1.6-29.2,3.3-41.1,6.2c-4.7,1.1-9.4,2.6-14,4.2c-2.2,0.8-5.3,1.3-5.6,4c-0.3,3,3,3.3,5.1,4c4.3,1.5,8.6,3,12.9,4.1
								c15.9,4.1,32.3,6.1,48.6,7.8c52.9,5.6,106.1,7.1,159.3,7.1c35.7,0,71.4-0.8,107-3.1c29.7-1.9,59.3-4.4,88.6-9.9
								c7.9-1.5,15.8-3.1,23.3-6c1.9-0.7,3.7-1.8,5.4-3c0.8-0.6,1-1.9-0.1-2.6c-1.7-1.1-3.5-2.2-5.5-2.9c-6.8-2.7-14-4.4-21.2-5.7
								c-10-1.7-20-3.1-30-4.6c-5.4-0.8-6-1.2-6.5-6.1c-1-10.6-4-20.6-8.7-30.2c-0.4-0.9-0.5-1.9-0.7-2.8c1.1-1.4,2.5-1.3,3.8-1.2
								c43.9,4.5,87.5,10.4,129.9,22.8c10.4,3,20.5,6.7,30.2,11.6c5.6,2.8,11,6,15.6,10.3c10.7,10,10.5,21-0.4,30.9
								c-4.1,3.7-8.9,6.6-13.8,9.2c-9,4.6-18.5,8.1-28.2,11c-20.7,6.4-41.9,10.6-63.3,14.2c-41.1,6.8-82.5,10.4-124.1,12.6
								c-49.7,2.7-99.4,2.6-149,1c-40.6-1.3-81-4.4-121.3-9.8c-28.4-3.8-56.7-8.4-84.3-16c-14.1-3.9-28-8.4-41.1-15.2
								c-5.3-2.7-10.2-5.9-14.4-10.1c-9.7-9.7-9.5-19.9,0.5-29.4c5.1-4.8,11.1-8.2,17.4-11.2c14.8-7.1,30.6-11.5,46.5-15.4
								c26.5-6.5,53.5-10.5,80.5-13.9C759.9,727.1,762.7,726.4,765.5,727.9z"/>
						</g>
					</g>
				</g>
			</g>
		</g>
	</g>
</g>
</svg>
