<svg width="23" height="24" viewBox="0 0 23 24" fill="none" xmlns="http://www.w3.org/2000/svg">
<path d="M21.1166 16.5508C20.4227 15.9542 19.6302 15.4574 18.9363 14.9601C17.4494 13.8667 16.062 13.8667 14.9719 15.5567C14.377 16.5508 13.485 16.5508 12.5934 16.1533C10.1155 14.9606 8.13326 13.2706 6.94404 10.6859C6.44826 9.59255 6.44826 8.49916 7.63794 7.70385C8.23279 7.30642 8.92623 6.80917 8.82717 5.81514C8.7281 4.6224 5.85388 0.546925 4.66465 0.149035C4.16888 -0.0496783 3.67356 -0.0496783 3.17778 0.149035C0.501681 1.04371 -0.687541 3.32984 0.402618 5.9145C3.57403 13.8667 9.32248 19.3341 17.0531 22.7136C17.5484 22.9124 18.0442 22.9124 18.2423 23.0117C20.0264 23.0117 22.1077 21.3217 22.7025 19.6322C23.2973 18.0416 22.1077 17.3461 21.1166 16.5508Z" fill="white"/>
</svg>
